<svg width="279" height="400" viewBox="0 0 279 400" fill="none" xmlns="http://www.w3.org/2000/svg">
<rect width="279" height="400" rx="10" fill="white"/>
<path d="M79.4167 240.718C79.4167 236.974 76.5907 234.328 73.0267 234.328C69.4987 234.328 66.6367 236.974 66.6367 240.718C66.6367 244.48 69.4987 247.126 73.0267 247.126C76.5907 247.126 79.4167 244.48 79.4167 240.718ZM68.7427 240.718C68.7427 237.892 70.5427 236.128 73.0267 236.128C75.5107 236.128 77.3107 237.892 77.3107 240.718C77.3107 243.544 75.5107 245.344 73.0267 245.344C70.5427 245.344 68.7427 243.544 68.7427 240.718ZM88.4739 247H90.5079V241.15C90.5079 238.378 88.7619 236.92 86.4399 236.92C85.2519 236.92 84.1539 237.406 83.4879 238.216V237.082H81.4359V247H83.4879V241.456C83.4879 239.638 84.4779 238.702 85.9899 238.702C87.4839 238.702 88.4739 239.638 88.4739 241.456V247ZM97.3014 238.648C98.8314 238.648 100.037 239.62 100.073 241.15H94.5834C94.7994 239.584 95.9154 238.648 97.3014 238.648ZM101.945 244.048H99.7314C99.3534 244.822 98.6514 245.434 97.3914 245.434C95.8794 245.434 94.7094 244.444 94.5654 242.806H102.143C102.197 242.464 102.215 242.14 102.215 241.798C102.215 238.882 100.217 236.92 97.3914 236.92C94.4574 236.92 92.4414 238.918 92.4414 242.032C92.4414 245.146 94.5474 247.162 97.3914 247.162C99.8214 247.162 101.387 245.776 101.945 244.048ZM108.911 247H110.963V238.432L114.797 247H116.219L120.035 238.432V247H122.087V234.49H119.891L115.517 244.3L111.125 234.49H108.911V247ZM134.234 242.032C134.234 238.918 132.002 236.92 129.176 236.92C126.35 236.92 124.118 238.918 124.118 242.032C124.118 245.146 126.26 247.162 129.086 247.162C131.93 247.162 134.234 245.146 134.234 242.032ZM126.206 242.032C126.206 239.782 127.592 238.702 129.14 238.702C130.67 238.702 132.128 239.782 132.128 242.032C132.128 244.282 130.616 245.38 129.086 245.38C127.538 245.38 126.206 244.282 126.206 242.032ZM143.3 247H145.334V241.15C145.334 238.378 143.588 236.92 141.266 236.92C140.078 236.92 138.98 237.406 138.314 238.216V237.082H136.262V247H138.314V241.456C138.314 239.638 139.304 238.702 140.816 238.702C142.31 238.702 143.3 239.638 143.3 241.456V247ZM148.276 244.246C148.276 246.262 149.374 247 151.138 247H152.758V245.29H151.498C150.634 245.29 150.346 244.984 150.346 244.246V238.756H152.758V237.082H150.346V234.616H148.276V237.082H147.106V238.756H148.276V244.246ZM154.649 247H156.701V241.456C156.701 239.638 157.691 238.702 159.203 238.702C160.697 238.702 161.687 239.638 161.687 241.456V247H163.721V241.15C163.721 238.378 161.993 236.92 159.779 236.92C158.501 236.92 157.385 237.406 156.701 238.234V233.68H154.649V247ZM171.014 234.49V247H177.296V245.344H173.066V234.49H171.014ZM188.462 242.032C188.462 238.918 186.23 236.92 183.404 236.92C180.578 236.92 178.346 238.918 178.346 242.032C178.346 245.146 180.488 247.162 183.314 247.162C186.158 247.162 188.462 245.146 188.462 242.032ZM180.434 242.032C180.434 239.782 181.82 238.702 183.368 238.702C184.898 238.702 186.356 239.782 186.356 242.032C186.356 244.282 184.844 245.38 183.314 245.38C181.766 245.38 180.434 244.282 180.434 242.032ZM189.807 241.996C189.807 245.056 191.877 247.162 194.451 247.162C196.107 247.162 197.295 246.37 197.925 245.524V247H199.995V237.082H197.925V238.522C197.313 237.712 196.161 236.92 194.487 236.92C191.877 236.92 189.807 238.936 189.807 241.996ZM197.925 242.032C197.925 244.174 196.467 245.38 194.919 245.38C193.389 245.38 191.913 244.138 191.913 241.996C191.913 239.854 193.389 238.702 194.919 238.702C196.467 238.702 197.925 239.908 197.925 242.032ZM209.728 247H211.762V241.15C211.762 238.378 210.016 236.92 207.694 236.92C206.506 236.92 205.408 237.406 204.742 238.216V237.082H202.69V247H204.742V241.456C204.742 239.638 205.732 238.702 207.244 238.702C208.738 238.702 209.728 239.638 209.728 241.456V247Z" fill="#008080"/>
<path d="M45.0638 292H46.5998L42.5838 280.912H40.9038L36.8717 292H38.4078L39.3038 289.52H44.1678L45.0638 292ZM43.7518 288.336H39.7198L41.7358 282.704L43.7518 288.336ZM47.813 287.6C47.813 290.384 49.589 292.144 52.085 292.144C54.261 292.144 55.685 290.928 56.133 289.184H54.565C54.245 290.288 53.381 290.912 52.085 290.912C50.485 290.912 49.301 289.776 49.301 287.6C49.301 285.456 50.485 284.32 52.085 284.32C53.381 284.32 54.261 284.992 54.565 286.048H56.133C55.685 284.208 54.261 283.088 52.085 283.088C49.589 283.088 47.813 284.848 47.813 287.6ZM57.5318 287.6C57.5318 290.384 59.3078 292.144 61.8038 292.144C63.9798 292.144 65.4038 290.928 65.8518 289.184H64.2838C63.9638 290.288 63.0998 290.912 61.8038 290.912C60.2038 290.912 59.0198 289.776 59.0198 287.6C59.0198 285.456 60.2038 284.32 61.8038 284.32C63.0998 284.32 63.9798 284.992 64.2838 286.048H65.8518C65.4038 284.208 63.9798 283.088 61.8038 283.088C59.3078 283.088 57.5318 284.848 57.5318 287.6ZM71.5225 284.32C73.0265 284.32 74.3065 285.264 74.2905 286.976H68.7545C68.9145 285.264 70.0985 284.32 71.5225 284.32ZM75.6185 289.296H74.0505C73.7305 290.24 72.8985 290.912 71.5865 290.912C70.0985 290.912 68.8505 289.936 68.7385 288.16H75.7465C75.7785 287.856 75.7945 287.6 75.7945 287.28C75.7945 284.88 74.1305 283.088 71.5865 283.088C69.0265 283.088 67.2505 284.832 67.2505 287.6C67.2505 290.384 69.0905 292.144 71.5865 292.144C73.7625 292.144 75.1705 290.896 75.6185 289.296ZM84.0204 289.616C83.9564 286.48 78.8684 287.616 78.8684 285.536C78.8684 284.832 79.5084 284.32 80.5804 284.32C81.7484 284.32 82.4204 284.96 82.4844 285.84H83.9404C83.8444 284.128 82.5644 283.088 80.6284 283.088C78.6764 283.088 77.4124 284.192 77.4124 285.536C77.4124 288.8 82.5964 287.664 82.5964 289.616C82.5964 290.336 81.9564 290.912 80.8044 290.912C79.5724 290.912 78.8204 290.272 78.7404 289.424H77.2364C77.3324 291.024 78.7724 292.144 80.8204 292.144C82.7564 292.144 84.0204 291.056 84.0204 289.616ZM92.3798 289.616C92.3158 286.48 87.2278 287.616 87.2278 285.536C87.2278 284.832 87.8678 284.32 88.9398 284.32C90.1078 284.32 90.7798 284.96 90.8438 285.84H92.2998C92.2038 284.128 90.9238 283.088 88.9878 283.088C87.0358 283.088 85.7718 284.192 85.7718 285.536C85.7718 288.8 90.9558 287.664 90.9558 289.616C90.9558 290.336 90.3158 290.912 89.1638 290.912C87.9318 290.912 87.1798 290.272 87.0998 289.424H85.5958C85.6918 291.024 87.1318 292.144 89.1798 292.144C91.1158 292.144 92.3798 291.056 92.3798 289.616ZM98.9728 292H100.429V284.432H102.269V283.232H100.429V282.608C100.429 281.472 100.861 280.992 102.173 280.992V279.776C99.9328 279.776 98.9728 280.656 98.9728 282.608V283.232H97.8368V284.432H98.9728V292ZM111.742 283.232H110.286V288.048C110.286 289.936 109.278 290.864 107.774 290.864C106.302 290.864 105.326 289.952 105.326 288.176V283.232H103.886V288.368C103.886 290.88 105.47 292.128 107.486 292.128C108.654 292.128 109.726 291.616 110.286 290.704V292H111.742V283.232ZM120.617 292H122.057V286.832C122.057 284.32 120.505 283.072 118.473 283.072C117.289 283.072 116.233 283.568 115.657 284.48V283.232H114.201V292H115.657V287.152C115.657 285.264 116.681 284.336 118.169 284.336C119.641 284.336 120.617 285.248 120.617 287.04V292ZM123.891 287.584C123.891 290.304 125.699 292.144 128.051 292.144C129.651 292.144 130.787 291.328 131.315 290.352V292H132.787V280.16H131.315V284.8C130.707 283.792 129.443 283.088 128.067 283.088C125.699 283.088 123.891 284.848 123.891 287.584ZM131.315 287.6C131.315 289.664 129.939 290.864 128.339 290.864C126.739 290.864 125.379 289.648 125.379 287.584C125.379 285.52 126.739 284.352 128.339 284.352C129.939 284.352 131.315 285.568 131.315 287.6ZM141.552 289.616C141.488 286.48 136.4 287.616 136.4 285.536C136.4 284.832 137.04 284.32 138.112 284.32C139.28 284.32 139.952 284.96 140.016 285.84H141.472C141.376 284.128 140.096 283.088 138.16 283.088C136.208 283.088 134.944 284.192 134.944 285.536C134.944 288.8 140.128 287.664 140.128 289.616C140.128 290.336 139.488 290.912 138.336 290.912C137.104 290.912 136.352 290.272 136.272 289.424H134.768C134.864 291.024 136.304 292.144 138.352 292.144C140.288 292.144 141.552 291.056 141.552 289.616ZM148.145 292H149.601V284.432H151.441V283.232H149.601V282.608C149.601 281.472 150.033 280.992 151.345 280.992V279.776C149.105 279.776 148.145 280.656 148.145 282.608V283.232H147.009V284.432H148.145V292ZM161.458 287.6C161.458 284.832 159.522 283.088 157.026 283.088C154.546 283.088 152.594 284.832 152.594 287.6C152.594 290.384 154.482 292.144 156.962 292.144C159.458 292.144 161.458 290.384 161.458 287.6ZM154.082 287.6C154.082 285.392 155.474 284.352 157.01 284.352C158.514 284.352 159.97 285.392 159.97 287.6C159.97 289.824 158.482 290.864 156.962 290.864C155.442 290.864 154.082 289.824 154.082 287.6ZM164.829 287.232C164.829 285.2 165.885 284.576 167.277 284.576H167.661V283.072C166.269 283.072 165.325 283.68 164.829 284.656V283.232H163.373V292H164.829V287.232ZM175.063 284.848V283.232H173.607V296.16H175.063V290.384C175.607 291.28 176.743 292.144 178.343 292.144C180.695 292.144 182.503 290.304 182.503 287.584C182.503 284.848 180.695 283.088 178.343 283.088C176.743 283.088 175.591 283.92 175.063 284.848ZM181.015 287.584C181.015 289.648 179.655 290.864 178.039 290.864C176.455 290.864 175.063 289.664 175.063 287.6C175.063 285.568 176.455 284.352 178.039 284.352C179.655 284.352 181.015 285.52 181.015 287.584ZM188.148 284.32C189.652 284.32 190.932 285.264 190.916 286.976H185.38C185.539 285.264 186.724 284.32 188.148 284.32ZM192.244 289.296H190.676C190.356 290.24 189.524 290.912 188.212 290.912C186.724 290.912 185.476 289.936 185.364 288.16H192.372C192.404 287.856 192.42 287.6 192.42 287.28C192.42 284.88 190.756 283.088 188.212 283.088C185.652 283.088 183.876 284.832 183.876 287.6C183.876 290.384 185.716 292.144 188.212 292.144C190.388 292.144 191.796 290.896 192.244 289.296ZM195.797 287.232C195.797 285.2 196.853 284.576 198.245 284.576H198.629V283.072C197.237 283.072 196.293 283.68 195.797 284.656V283.232H194.341V292H195.797V287.232ZM206.614 289.616C206.55 286.48 201.462 287.616 201.462 285.536C201.462 284.832 202.102 284.32 203.174 284.32C204.342 284.32 205.014 284.96 205.078 285.84H206.534C206.438 284.128 205.158 283.088 203.222 283.088C201.27 283.088 200.006 284.192 200.006 285.536C200.006 288.8 205.19 287.664 205.19 289.616C205.19 290.336 204.55 290.912 203.398 290.912C202.166 290.912 201.414 290.272 201.334 289.424H199.83C199.926 291.024 201.366 292.144 203.414 292.144C205.35 292.144 206.614 291.056 206.614 289.616ZM216.99 287.6C216.99 284.832 215.054 283.088 212.558 283.088C210.078 283.088 208.126 284.832 208.126 287.6C208.126 290.384 210.014 292.144 212.494 292.144C214.99 292.144 216.99 290.384 216.99 287.6ZM209.614 287.6C209.614 285.392 211.006 284.352 212.542 284.352C214.046 284.352 215.502 285.392 215.502 287.6C215.502 289.824 214.014 290.864 212.494 290.864C210.974 290.864 209.614 289.824 209.614 287.6ZM225.32 292H226.76V286.832C226.76 284.32 225.208 283.072 223.176 283.072C221.992 283.072 220.936 283.568 220.36 284.48V283.232H218.904V292H220.36V287.152C220.36 285.264 221.384 284.336 222.872 284.336C224.344 284.336 225.32 285.248 225.32 287.04V292ZM228.594 287.584C228.594 290.304 230.402 292.144 232.738 292.144C234.354 292.144 235.49 291.312 236.018 290.368V292H237.49V283.232H236.018V284.832C235.506 283.92 234.386 283.088 232.754 283.088C230.402 283.088 228.594 284.848 228.594 287.584ZM236.018 287.6C236.018 289.664 234.642 290.864 233.042 290.864C231.442 290.864 230.082 289.648 230.082 287.584C230.082 285.52 231.442 284.352 233.042 284.352C234.642 284.352 236.018 285.568 236.018 287.6ZM239.951 292H241.407V280.16H239.951V292ZM53.3283 307.232H51.8723V312.048C51.8723 313.936 50.8643 314.864 49.3603 314.864C47.8883 314.864 46.9123 313.952 46.9123 312.176V307.232H45.4723V312.368C45.4723 314.88 47.0563 316.128 49.0723 316.128C50.2403 316.128 51.3123 315.616 51.8723 314.704V316H53.3283V307.232ZM57.2427 308.848V307.232H55.7867V320.16H57.2427V314.384C57.7867 315.28 58.9227 316.144 60.5227 316.144C62.8747 316.144 64.6827 314.304 64.6827 311.584C64.6827 308.848 62.8747 307.088 60.5227 307.088C58.9227 307.088 57.7707 307.92 57.2427 308.848ZM63.1947 311.584C63.1947 313.648 61.8347 314.864 60.2187 314.864C58.6347 314.864 57.2427 313.664 57.2427 311.6C57.2427 309.568 58.6347 308.352 60.2187 308.352C61.8347 308.352 63.1947 309.52 63.1947 311.584ZM66.5992 316H68.0552V312.128L71.4952 316H73.4792L69.3352 311.6L73.4632 307.232H71.4312L68.0552 311.12V304.16H66.5992V316ZM78.5616 308.32C80.0656 308.32 81.3456 309.264 81.3296 310.976H75.7936C75.9536 309.264 77.1376 308.32 78.5616 308.32ZM82.6576 313.296H81.0896C80.7696 314.24 79.9376 314.912 78.6256 314.912C77.1376 314.912 75.8896 313.936 75.7776 312.16H82.7856C82.8176 311.856 82.8336 311.6 82.8336 311.28C82.8336 308.88 81.1696 307.088 78.6256 307.088C76.0656 307.088 74.2896 308.832 74.2896 311.6C74.2896 314.384 76.1296 316.144 78.6256 316.144C80.8016 316.144 82.2096 314.896 82.6576 313.296ZM88.4834 308.32C89.9874 308.32 91.2674 309.264 91.2514 310.976H85.7154C85.8754 309.264 87.0594 308.32 88.4834 308.32ZM92.5794 313.296H91.0114C90.6914 314.24 89.8594 314.912 88.5474 314.912C87.0594 314.912 85.8114 313.936 85.6994 312.16H92.7074C92.7394 311.856 92.7554 311.6 92.7554 311.28C92.7554 308.88 91.0914 307.088 88.5474 307.088C85.9874 307.088 84.2114 308.832 84.2114 311.6C84.2114 314.384 86.0514 316.144 88.5474 316.144C90.7234 316.144 92.1314 314.896 92.5794 313.296ZM96.1333 308.848V307.232H94.6773V320.16H96.1333V314.384C96.6773 315.28 97.8133 316.144 99.4133 316.144C101.765 316.144 103.573 314.304 103.573 311.584C103.573 308.848 101.765 307.088 99.4133 307.088C97.8133 307.088 96.6613 307.92 96.1333 308.848ZM102.085 311.584C102.085 313.648 100.725 314.864 99.1093 314.864C97.5253 314.864 96.1333 313.664 96.1333 311.6C96.1333 309.568 97.5253 308.352 99.1093 308.352C100.725 308.352 102.085 309.52 102.085 311.584ZM110.027 316H111.483V308.432H113.323V307.232H111.483V306.608C111.483 305.472 111.915 304.992 113.227 304.992V303.776C110.987 303.776 110.027 304.656 110.027 306.608V307.232H108.891V308.432H110.027V316ZM123.341 311.6C123.341 308.832 121.405 307.088 118.909 307.088C116.429 307.088 114.477 308.832 114.477 311.6C114.477 314.384 116.365 316.144 118.845 316.144C121.341 316.144 123.341 314.384 123.341 311.6ZM115.965 311.6C115.965 309.392 117.357 308.352 118.893 308.352C120.397 308.352 121.853 309.392 121.853 311.6C121.853 313.824 120.365 314.864 118.845 314.864C117.325 314.864 115.965 313.824 115.965 311.6ZM126.711 311.232C126.711 309.2 127.767 308.576 129.159 308.576H129.543V307.072C128.151 307.072 127.207 307.68 126.711 308.656V307.232H125.255V316H126.711V311.232ZM135.218 307.344H136.642C136.786 306.224 137.602 305.456 138.962 305.456C140.354 305.456 141.09 306.224 141.09 307.328C141.09 308.672 140.05 309.264 138.114 309.28H137.73V310.496H138.098C140.178 310.496 141.314 311.12 141.314 312.752C141.314 313.936 140.578 314.848 139.026 314.848C137.49 314.848 136.594 313.904 136.45 312.672H135.042C135.218 314.912 136.85 316.08 139.042 316.08C141.458 316.08 142.706 314.672 142.706 312.88C142.706 311.216 141.794 310.224 140.45 309.904V309.824C141.666 309.552 142.498 308.512 142.498 307.184C142.498 305.52 141.266 304.208 139.01 304.208C136.866 304.208 135.362 305.36 135.218 307.344ZM144.672 310.096C144.672 313.456 145.504 316 148.704 316C151.888 316 152.72 313.456 152.72 310.096C152.72 306.784 151.888 304.256 148.704 304.256C145.504 304.256 144.672 306.784 144.672 310.096ZM151.28 310.096C151.28 312.592 150.976 314.672 148.704 314.672C146.416 314.672 146.112 312.592 146.112 310.096C146.112 307.696 146.416 305.584 148.704 305.584C150.976 305.584 151.28 307.696 151.28 310.096ZM158.68 311.584C158.68 314.304 160.488 316.144 162.84 316.144C164.44 316.144 165.576 315.328 166.104 314.352V316H167.576V304.16H166.104V308.8C165.496 307.792 164.232 307.088 162.856 307.088C160.488 307.088 158.68 308.848 158.68 311.584ZM166.104 311.6C166.104 313.664 164.728 314.864 163.128 314.864C161.528 314.864 160.168 313.648 160.168 311.584C160.168 309.52 161.528 308.352 163.128 308.352C164.728 308.352 166.104 309.568 166.104 311.6ZM169.493 311.584C169.493 314.304 171.301 316.144 173.637 316.144C175.253 316.144 176.389 315.312 176.917 314.368V316H178.389V307.232H176.917V308.832C176.405 307.92 175.285 307.088 173.653 307.088C171.301 307.088 169.493 308.848 169.493 311.584ZM176.917 311.6C176.917 313.664 175.541 314.864 173.941 314.864C172.341 314.864 170.981 313.648 170.981 311.584C170.981 309.52 172.341 308.352 173.941 308.352C175.541 308.352 176.917 309.568 176.917 311.6ZM184.177 314.336L181.425 307.232H179.809L183.345 315.904L181.617 320.128H183.121L188.401 307.232H186.897L184.177 314.336ZM196.169 313.616C196.105 310.48 191.017 311.616 191.017 309.536C191.017 308.832 191.657 308.32 192.729 308.32C193.897 308.32 194.569 308.96 194.633 309.84H196.089C195.993 308.128 194.713 307.088 192.777 307.088C190.825 307.088 189.561 308.192 189.561 309.536C189.561 312.8 194.745 311.664 194.745 313.616C194.745 314.336 194.105 314.912 192.953 314.912C191.721 314.912 190.969 314.272 190.889 313.424H189.385C189.481 315.024 190.921 316.144 192.969 316.144C194.905 316.144 196.169 315.056 196.169 313.616ZM210.81 311.6C210.81 308.832 208.874 307.088 206.378 307.088C203.898 307.088 201.946 308.832 201.946 311.6C201.946 314.384 203.834 316.144 206.314 316.144C208.81 316.144 210.81 314.384 210.81 311.6ZM203.434 311.6C203.434 309.392 204.826 308.352 206.362 308.352C207.866 308.352 209.322 309.392 209.322 311.6C209.322 313.824 207.834 314.864 206.314 314.864C204.794 314.864 203.434 313.824 203.434 311.6ZM219.14 316H220.58V310.832C220.58 308.32 219.028 307.072 216.996 307.072C215.812 307.072 214.756 307.568 214.18 308.48V307.232H212.724V316H214.18V311.152C214.18 309.264 215.204 308.336 216.692 308.336C218.164 308.336 219.14 309.248 219.14 311.04V316ZM222.959 316H224.415V304.16H222.959V316ZM230.224 314.336L227.472 307.232H225.856L229.392 315.904L227.664 320.128H229.168L234.448 307.232H232.944L230.224 314.336Z" fill="#333333"/>
<path opacity="0.3" d="M214.523 158.088C199.347 193.277 159.288 208.391 127.901 205.814C119.332 205.111 102.088 203.695 88.6253 191.064C62.77 166.809 66.7521 116.107 91.503 86.2576C94.6903 82.4133 116.753 56.659 151.134 57.0034C176.306 57.2557 193.974 71.3616 196.122 73.1187C198.836 75.3387 204.822 80.6138 210.217 88.9827C222.892 108.648 224.006 136.099 214.523 158.088Z" fill="url(#paint0_linear_8_896)"/>
<path d="M201.75 76.3356C201.571 75.3917 200.239 75.3145 199.955 76.2327C197.214 85.1084 189.294 108.158 177.698 120.204C158.818 139.818 145.768 172.109 157.111 189.288C157.111 189.288 221.283 179.174 201.75 76.3356Z" fill="url(#paint1_linear_8_896)"/>
<path opacity="0.43" d="M199.295 89.0416C199.261 89.2505 199.205 89.5178 199.156 89.7637L198.995 90.5137L198.656 92.0121L197.95 95.0035C197.464 96.9942 196.953 98.979 196.423 100.959C195.373 104.921 194.256 108.865 193.058 112.783C190.643 120.614 188.032 128.386 185.002 135.996C183.47 139.793 181.926 143.586 180.223 147.309C178.52 151.031 176.73 154.713 174.799 158.322C170.964 165.55 166.583 172.501 161.454 178.902C161.384 178.988 161.397 179.115 161.483 179.184C161.567 179.252 161.691 179.24 161.762 179.161C164.483 176.067 166.968 172.771 169.309 169.38C171.623 165.968 173.734 162.426 175.751 158.834C179.701 151.602 183.134 144.1 186.136 136.438C187.643 132.609 189.024 128.733 190.348 124.84C191.67 120.946 192.908 117.023 194.029 113.068C195.157 109.115 196.228 105.146 197.185 101.15C197.66 99.1505 198.116 97.1469 198.547 95.138C198.758 94.1324 198.971 93.1274 199.166 92.1187L199.449 90.6026L199.582 89.8425C199.622 89.5826 199.669 89.3475 199.699 89.0469C199.71 88.9376 199.63 88.8401 199.52 88.8294C199.415 88.8193 199.32 88.8926 199.303 88.9955L199.295 89.0416Z" fill="white"/>
<path d="M186.476 57.6597C174.352 65.5266 105.67 114.182 139.893 186.633C139.893 186.633 193.38 166.204 188.368 58.6218C188.324 57.6806 187.268 57.1454 186.476 57.6597Z" fill="url(#paint2_linear_8_896)"/>
<path opacity="0.43" d="M181.47 71.2651C180.001 73.2049 178.591 75.1822 177.199 77.1734C175.81 79.1663 174.449 81.1779 173.113 83.2066C170.44 87.263 167.865 91.3837 165.394 95.5665C160.457 103.933 155.912 112.538 151.949 121.412C147.999 130.286 144.61 139.437 142.249 148.876C141.652 151.233 141.145 153.614 140.698 156.005C140.593 156.604 140.473 157.2 140.38 157.802L140.093 159.604C139.927 160.809 139.751 162.014 139.628 163.225C139.08 168.062 138.951 172.953 139.311 177.818C139.326 178.022 139.504 178.175 139.709 178.16C139.914 178.145 140.068 177.968 140.053 177.763V177.762V177.759C139.68 172.95 139.788 168.102 140.314 163.299C140.431 162.096 140.602 160.899 140.762 159.702L141.041 157.911C141.131 157.313 141.249 156.72 141.351 156.124C141.785 153.745 142.281 151.376 142.867 149.029C145.182 139.627 148.526 130.493 152.433 121.626C156.354 112.759 160.859 104.152 165.758 95.7803C168.21 91.5948 170.766 87.4698 173.421 83.4086C174.748 81.3777 176.101 79.3634 177.481 77.3679C178.863 75.375 180.265 73.3924 181.721 71.4558L181.722 71.4542C181.774 71.3845 181.76 71.2865 181.69 71.2345C181.621 71.182 181.522 71.1954 181.47 71.2651Z" fill="white"/>
<path d="M77.9355 82.8324C77.9355 77.9751 81.8853 74.0376 86.7578 74.0376H161.785C165.924 74.0376 169.337 77.2712 169.547 81.3924L175.086 189.828C175.25 193.053 172.704 195.773 169.465 195.832L83.4755 197.389C80.4322 197.444 77.9361 195 77.9361 191.966V82.8324H77.9355Z" fill="url(#paint3_linear_8_896)"/>
<path d="M96.043 195.545C96.042 195.545 96.0414 195.545 96.0404 195.545L86.4184 195.422C83.2011 195.38 80.5835 192.737 80.5835 189.529V175.047C80.5835 174.934 80.6754 174.843 80.7888 174.843C80.9022 174.843 80.9941 174.934 80.9941 175.047V189.529C80.9941 192.514 83.4295 194.973 86.4233 195.012L96.0452 195.136C96.1586 195.137 96.2494 195.23 96.2478 195.343C96.2467 195.455 96.1548 195.545 96.043 195.545Z" fill="white"/>
<path d="M80.7888 170.767C80.6754 170.767 80.5835 170.675 80.5835 170.562V168.217C80.5835 168.104 80.6754 168.012 80.7888 168.012C80.9022 168.012 80.9941 168.104 80.9941 168.217V170.562C80.9941 170.675 80.9022 170.767 80.7888 170.767Z" fill="white"/>
<path d="M84.0821 75.7063C84.0729 74.1522 85.4438 72.9495 86.9888 73.1584C97.2346 74.5432 132.466 78.8273 161.596 76.5982C162.924 76.4964 164.077 77.4998 164.148 78.8262L169.955 187.745C170.035 189.239 168.89 190.516 167.393 190.605C155.142 191.327 104.688 194.122 86.6911 192.242C85.5959 192.128 84.7646 191.209 84.7581 190.111L84.0821 75.7063Z" fill="url(#paint4_linear_8_896)"/>
<path opacity="0.6" d="M85.2891 78.4357C85.2805 76.94 86.5998 75.7829 88.0862 75.9838C97.9462 77.3166 131.851 81.4389 159.884 79.2939C161.162 79.1959 162.271 80.1618 162.34 81.4379L167.928 186.256C168.005 187.693 166.904 188.922 165.462 189.007C153.673 189.702 105.118 192.391 87.7992 190.583C86.7454 190.473 85.9453 189.588 85.9388 188.532L85.2891 78.4357Z" fill="white"/>
<g opacity="0.6">
<path opacity="0.6" d="M157.093 108.506C157.544 108.506 157.894 108.139 157.87 107.691L157.857 107.439C157.833 106.99 157.444 106.619 156.994 106.615L93.4819 105.991C93.031 105.987 92.8607 106.293 93.103 106.672L93.8355 107.817C94.0778 108.196 94.6448 108.506 95.0957 108.506H157.093Z" fill="white"/>
</g>
<g opacity="0.6">
<path opacity="0.6" d="M94.0641 111.23C93.6132 111.223 93.3843 111.557 93.5552 111.973L93.9711 112.985C94.142 113.4 94.6509 113.74 95.1013 113.74H134.384C134.835 113.74 135.191 113.373 135.175 112.924L135.167 112.673C135.152 112.224 134.77 111.851 134.319 111.844L94.0641 111.23Z" fill="white"/>
</g>
<g opacity="0.6">
<path opacity="0.6" d="M157.094 121.664C157.545 121.664 157.894 121.297 157.87 120.848L157.857 120.596C157.833 120.147 157.445 119.776 156.995 119.772L93.4829 119.148C93.032 119.144 92.8616 119.451 93.104 119.829L93.8365 120.975C94.0788 121.353 94.6458 121.664 95.0966 121.664H157.094Z" fill="white"/>
</g>
<g opacity="0.6">
<path opacity="0.6" d="M94.0641 124.387C93.6132 124.38 93.3843 124.715 93.5552 125.13L93.9711 126.142C94.142 126.558 94.6509 126.898 95.1013 126.898H134.384C134.835 126.898 135.191 126.53 135.175 126.081L135.167 125.831C135.152 125.382 134.77 125.008 134.319 125.001L94.0641 124.387Z" fill="white"/>
</g>
<g opacity="0.6">
<path opacity="0.6" d="M157.482 136.101C157.932 136.101 158.282 135.734 158.258 135.285L158.245 135.033C158.221 134.584 157.833 134.214 157.382 134.209L93.8706 133.586C93.4197 133.581 93.2493 133.888 93.4917 134.267L94.2242 135.412C94.4665 135.791 95.0335 136.101 95.4843 136.101H157.482Z" fill="white"/>
</g>
<g opacity="0.6">
<path opacity="0.6" d="M157.676 144.228C158.127 144.228 158.477 143.861 158.453 143.412L158.44 143.16C158.416 142.711 158.027 142.34 157.577 142.336L94.0654 141.712C93.6145 141.708 93.4442 142.015 93.6865 142.393L94.419 143.539C94.6613 143.917 95.2283 144.228 95.6792 144.228H157.676Z" fill="white"/>
</g>
<g opacity="0.6">
<path opacity="0.6" d="M157.87 152.548C158.321 152.548 158.67 152.181 158.647 151.732L158.633 151.481C158.61 151.032 158.221 150.661 157.771 150.657L94.2592 150.033C93.8084 150.029 93.638 150.335 93.8804 150.714L94.6128 151.859C94.8552 152.238 95.4221 152.548 95.873 152.548H157.87Z" fill="white"/>
</g>
<g opacity="0.6">
<path opacity="0.6" d="M157.676 161.062C158.127 161.062 158.477 160.695 158.453 160.246L158.44 159.994C158.416 159.545 158.027 159.175 157.577 159.17L94.0654 158.547C93.6145 158.542 93.4442 158.849 93.6865 159.228L94.419 160.373C94.6613 160.752 95.2283 161.062 95.6792 161.062H157.676Z" fill="white"/>
</g>
<g opacity="0.6">
<path opacity="0.6" d="M157.87 169.382C158.321 169.382 158.67 169.015 158.647 168.566L158.633 168.314C158.61 167.865 158.221 167.495 157.771 167.49L94.2592 166.867C93.8084 166.862 93.638 167.169 93.8804 167.548L94.6128 168.693C94.8552 169.072 95.4221 169.382 95.873 169.382H157.87Z" fill="white"/>
</g>
<g opacity="0.6">
<path opacity="0.6" d="M157.87 178.283C158.321 178.283 158.671 177.916 158.647 177.467L158.633 177.215C158.61 176.766 158.221 176.396 157.771 176.391L94.2583 175.768C93.8074 175.763 93.637 176.07 93.8794 176.449L94.6119 177.594C94.8542 177.973 95.4212 178.283 95.872 178.283H157.87Z" fill="white"/>
</g>
<path d="M128.925 59.2524C126.215 57.3731 123.858 57.4101 122.199 57.8981C120.686 58.3433 119.705 59.7994 119.849 61.3658L120.565 69.1497L129.077 69.9029C129.077 69.9029 134.24 62.9387 128.925 59.2524ZM125.181 65.532C124.009 65.532 123.059 64.5849 123.059 63.416C123.059 62.2471 124.009 61.2999 125.181 61.2999C126.354 61.2999 127.304 62.2471 127.304 63.416C127.304 64.5849 126.353 65.532 125.181 65.532Z" fill="url(#paint5_linear_8_896)"/>
<path d="M121.416 65.8754C121.311 65.8754 121.221 65.7956 121.211 65.689L121.098 64.4494C121.087 64.3369 121.171 64.2372 121.283 64.2265C121.398 64.2158 121.496 64.2994 121.506 64.4119L121.62 65.6515C121.631 65.764 121.548 65.8636 121.434 65.8738C121.428 65.8754 121.422 65.8754 121.416 65.8754ZM121.192 63.4465C121.087 63.4465 120.998 63.3667 120.988 63.2601L120.901 62.3188C120.764 60.8269 121.706 59.4378 123.141 59.0157C124.157 58.7167 125.204 58.6739 126.252 58.8882C126.363 58.9107 126.435 59.0189 126.412 59.1298C126.39 59.2401 126.282 59.3114 126.17 59.2894C125.188 59.089 124.208 59.1287 123.257 59.4083C122.01 59.7753 121.192 60.9839 121.311 62.2819L121.397 63.2231C121.408 63.3356 121.325 63.4353 121.211 63.446C121.204 63.446 121.199 63.4465 121.192 63.4465Z" fill="white"/>
<path d="M108.946 74.1804V70.2671C108.946 68.916 110.069 67.8339 111.424 67.8805L138.49 68.8051C139.691 68.8464 140.664 69.7914 140.736 70.9871L140.962 74.7472L108.946 74.1804Z" fill="url(#paint6_linear_8_896)"/>
<path d="M119.039 69.355H117.875C117.762 69.355 117.67 69.2634 117.67 69.1503C117.67 69.0373 117.762 68.9457 117.875 68.9457H119.039C119.153 68.9457 119.244 69.0373 119.244 69.1503C119.244 69.2634 119.153 69.355 119.039 69.355Z" fill="white"/>
<path d="M110.411 72.9517C110.298 72.9517 110.206 72.8601 110.206 72.7471V71.1641C110.206 69.941 111.205 68.9457 112.431 68.9457H116.711C116.824 68.9457 116.916 69.0373 116.916 69.1503C116.916 69.2634 116.824 69.355 116.711 69.355H112.431C111.431 69.355 110.617 70.1666 110.617 71.1635V72.7465C110.617 72.8601 110.525 72.9517 110.411 72.9517Z" fill="white"/>
<path d="M97.9181 75.1684C97.9837 73.813 99.1046 72.748 100.466 72.748L147.797 72.7469C149.499 72.7469 150.953 73.9678 151.244 75.6398L151.284 75.8707C151.603 77.7017 150.188 79.3764 148.324 79.3764H99.7646C98.6489 79.3764 97.7601 78.4464 97.8133 77.3359L97.9181 75.1684Z" fill="url(#paint7_linear_8_896)"/>
<path d="M79.7066 124.914C83.9563 124.914 87.4014 121.48 87.4014 117.244C87.4014 113.007 83.9563 109.573 79.7066 109.573C75.4568 109.573 72.0117 113.007 72.0117 117.244C72.0117 121.48 75.4568 124.914 79.7066 124.914Z" fill="url(#paint8_linear_8_896)"/>
<path d="M79.7071 124.659C83.8156 124.659 87.1462 121.339 87.1462 117.244C87.1462 113.148 83.8156 109.828 79.7071 109.828C75.5986 109.828 72.2681 113.148 72.2681 117.244C72.2681 121.339 75.5986 124.659 79.7071 124.659Z" fill="url(#paint9_linear_8_896)"/>
<path d="M73.5723 114.475C73.525 114.475 73.4772 114.464 73.4321 114.442C73.2778 114.364 73.216 114.177 73.294 114.024C74.5235 111.596 76.981 110.087 79.7071 110.087C80.1424 110.087 80.5782 110.126 81.0017 110.203C81.1715 110.234 81.2843 110.396 81.2532 110.566C81.222 110.735 81.0597 110.848 80.8899 110.816C80.503 110.746 80.1048 110.71 79.7071 110.71C77.2179 110.71 74.9744 112.087 73.8518 114.303C73.7964 114.413 73.6862 114.475 73.5723 114.475Z" fill="white"/>
<path opacity="0.78" d="M79.8683 123.682C83.3455 123.682 86.1643 120.872 86.1643 117.405C86.1643 113.939 83.3455 111.129 79.8683 111.129C76.3911 111.129 73.5723 113.939 73.5723 117.405C73.5723 120.872 76.3911 123.682 79.8683 123.682Z" fill="white"/>
<path d="M79.251 122.071V121.388C78.5368 121.36 77.8306 121.192 77.3287 120.973C77.1498 120.895 77.0584 120.695 77.11 120.507L77.2841 119.871C77.3481 119.637 77.6023 119.517 77.8263 119.61C78.324 119.818 78.9382 119.983 79.6008 119.983C80.2887 119.983 80.8013 119.75 80.8013 119.274C80.8013 118.844 80.4047 118.588 79.4493 118.333C78.0854 117.961 77.1062 117.368 77.1062 116.171C77.1062 115.091 77.8989 114.265 79.2746 114.044V113.361C79.2746 113.142 79.453 112.963 79.6739 112.963H80.0764C80.2967 112.963 80.4757 113.142 80.4757 113.361V113.975C81.1367 114.001 81.6176 114.113 81.9992 114.247C82.1948 114.316 82.3017 114.526 82.2474 114.725L82.0873 115.313C82.0255 115.54 81.7826 115.664 81.5617 115.581C81.2103 115.449 80.7132 115.311 80.0678 115.311C79.2515 115.311 79.0188 115.648 79.0188 115.95C79.0188 116.322 79.5084 116.577 80.5692 116.903C82.0846 117.356 82.7139 117.983 82.7139 119.111C82.7139 120.145 81.9443 121.074 80.4526 121.307V122.071C80.4526 122.291 80.2741 122.469 80.0533 122.469H79.6508C79.4294 122.469 79.251 122.291 79.251 122.071Z" fill="url(#paint10_linear_8_896)"/>
<path d="M93.4743 111.304C99.3065 111.304 104.034 106.591 104.034 100.777C104.034 94.9625 99.3065 90.2493 93.4743 90.2493C87.642 90.2493 82.9141 94.9625 82.9141 100.777C82.9141 106.591 87.642 111.304 93.4743 111.304Z" fill="url(#paint11_linear_8_896)"/>
<path d="M93.4749 110.954C99.113 110.954 103.684 106.397 103.684 100.777C103.684 95.1563 99.113 90.6 93.4749 90.6C87.8367 90.6 83.2661 95.1563 83.2661 100.777C83.2661 106.397 87.8367 110.954 93.4749 110.954Z" fill="url(#paint12_linear_8_896)"/>
<path d="M85.0563 96.7948C85.0192 96.7948 84.981 96.7863 84.9456 96.7686C84.8241 96.7075 84.7752 96.5597 84.8365 96.4391C86.4922 93.1686 89.8025 91.1372 93.4744 91.1372C94.0607 91.1372 94.6475 91.1897 95.2188 91.2936C95.3526 91.3177 95.4413 91.4458 95.4171 91.5792C95.3929 91.7126 95.265 91.8036 95.1307 91.7763C94.5884 91.6777 94.0312 91.6279 93.4744 91.6279C89.9889 91.6279 86.8479 93.5559 85.2761 96.6598C85.2331 96.7456 85.146 96.7948 85.0563 96.7948Z" fill="white"/>
<path opacity="0.78" d="M99.806 107.089C103.18 103.725 103.18 98.2714 99.806 94.9075C96.4316 91.5437 90.9607 91.5437 87.5864 94.9075C84.212 98.2714 84.212 103.725 87.5864 107.089C90.9607 110.453 96.4316 110.453 99.806 107.089Z" fill="white"/>
<path d="M92.8492 107.402V106.465C91.869 106.426 90.9001 106.195 90.2117 105.895C89.9661 105.788 89.8403 105.512 89.9113 105.255L90.1499 104.382C90.2375 104.062 90.5868 103.896 90.8941 104.025C91.5772 104.31 92.4203 104.536 93.3296 104.536C94.2732 104.536 94.9772 104.217 94.9772 103.563C94.9772 102.973 94.4334 102.622 93.1216 102.271C91.2499 101.761 89.9059 100.948 89.9059 99.3051C89.9059 97.8217 90.9936 96.6897 92.8814 96.3865V95.4496C92.8814 95.148 93.1265 94.9037 93.429 94.9037H93.9814C94.284 94.9037 94.529 95.148 94.529 95.4496V96.2912C95.4356 96.3276 96.0961 96.4819 96.62 96.6656C96.8882 96.7594 97.0349 97.0476 96.9607 97.3214L96.7409 98.1287C96.656 98.4399 96.3223 98.6103 96.0197 98.4962C95.5377 98.3146 94.8558 98.1249 93.9691 98.1249C92.8492 98.1249 92.5294 98.5872 92.5294 99.0019C92.5294 99.5124 93.2011 99.8633 94.6569 100.31C96.7366 100.932 97.6007 101.793 97.6007 103.34C97.6007 104.759 96.5448 106.035 94.4973 106.354V107.403C94.4973 107.705 94.2523 107.949 93.9497 107.949H93.3973C93.0942 107.948 92.8492 107.703 92.8492 107.402Z" fill="url(#paint13_linear_8_896)"/>
<path d="M100.757 135.122C106.758 135.122 111.623 130.272 111.623 124.29C111.623 118.307 106.758 113.458 100.757 113.458C94.756 113.458 89.8911 118.307 89.8911 124.29C89.8911 130.272 94.756 135.122 100.757 135.122Z" fill="url(#paint14_linear_8_896)"/>
<path d="M100.757 134.762C106.559 134.762 111.262 130.073 111.262 124.29C111.262 118.506 106.559 113.818 100.757 113.818C94.9556 113.818 90.2524 118.506 90.2524 124.29C90.2524 130.073 94.9556 134.762 100.757 134.762Z" fill="url(#paint15_linear_8_896)"/>
<path d="M92.0948 120.185C92.0578 120.185 92.0196 120.176 91.9841 120.159C91.8627 120.098 91.8138 119.95 91.8751 119.829C93.5775 116.466 96.9808 114.377 100.757 114.377C101.358 114.377 101.962 114.431 102.55 114.537C102.684 114.562 102.773 114.69 102.749 114.823C102.724 114.956 102.596 115.047 102.462 115.021C101.903 114.919 101.329 114.868 100.756 114.868C97.1673 114.868 93.9327 116.854 92.3141 120.05C92.2716 120.136 92.1846 120.185 92.0948 120.185Z" fill="white"/>
<path opacity="0.78" d="M107.272 130.785C110.744 127.324 110.744 121.712 107.272 118.25C103.8 114.789 98.1702 114.789 94.698 118.25C91.2259 121.712 91.2259 127.324 94.698 130.785C98.1701 134.246 103.8 134.246 107.272 130.785Z" fill="white"/>
<path d="M100.113 131.107V130.143C99.1054 130.102 98.108 129.865 97.3991 129.556C97.146 129.446 97.0171 129.163 97.0901 128.897L97.3357 127.999C97.426 127.669 97.7855 127.499 98.1015 127.631C98.8044 127.924 99.6718 128.157 100.607 128.157C101.578 128.157 102.303 127.828 102.303 127.155C102.303 126.548 101.743 126.187 100.393 125.826C98.4675 125.301 97.0848 124.464 97.0848 122.774C97.0848 121.248 98.2041 120.082 100.147 119.771V118.806C100.147 118.496 100.399 118.244 100.711 118.244H101.279C101.59 118.244 101.843 118.496 101.843 118.806V119.672C102.776 119.709 103.455 119.868 103.994 120.057C104.27 120.154 104.421 120.45 104.344 120.732L104.118 121.563C104.031 121.883 103.688 122.059 103.376 121.941C102.879 121.754 102.178 121.559 101.266 121.559C100.114 121.559 99.7846 122.035 99.7846 122.462C99.7846 122.987 100.476 123.348 101.974 123.808C104.114 124.448 105.003 125.334 105.003 126.926C105.003 128.386 103.916 129.699 101.809 130.027V131.106C101.809 131.416 101.556 131.668 101.245 131.668H100.677C100.366 131.669 100.113 131.417 100.113 131.107Z" fill="url(#paint16_linear_8_896)"/>
<path d="M114.697 117.471C119.094 117.471 122.659 113.917 122.659 109.534C122.659 105.151 119.094 101.597 114.697 101.597C110.3 101.597 106.736 105.151 106.736 109.534C106.736 113.917 110.3 117.471 114.697 117.471Z" fill="url(#paint17_linear_8_896)"/>
<path d="M114.697 117.207C118.948 117.207 122.394 113.772 122.394 109.534C122.394 105.296 118.948 101.861 114.697 101.861C110.446 101.861 107 105.296 107 109.534C107 113.772 110.446 117.207 114.697 117.207Z" fill="url(#paint18_linear_8_896)"/>
<path d="M108.351 106.593C108.314 106.593 108.275 106.584 108.24 106.566C108.119 106.505 108.07 106.357 108.131 106.236C109.39 103.75 111.906 102.206 114.697 102.206C115.142 102.206 115.588 102.246 116.023 102.324C116.157 102.349 116.245 102.477 116.221 102.61C116.197 102.743 116.069 102.833 115.935 102.807C115.529 102.734 115.113 102.696 114.697 102.696C112.093 102.696 109.745 104.137 108.57 106.457C108.528 106.543 108.44 106.593 108.351 106.593Z" fill="white"/>
<path opacity="0.78" d="M119.47 114.293C122.014 111.757 122.014 107.646 119.47 105.11C116.926 102.574 112.801 102.574 110.258 105.11C107.714 107.646 107.714 111.757 110.258 114.293C112.801 116.829 116.926 116.829 119.47 114.293Z" fill="white"/>
<path d="M114.226 114.529V113.822C113.487 113.793 112.756 113.619 112.237 113.393C112.052 113.312 111.957 113.105 112.01 112.91L112.19 112.252C112.256 112.011 112.52 111.886 112.751 111.983C113.266 112.198 113.902 112.368 114.588 112.368C115.299 112.368 115.83 112.127 115.83 111.635C115.83 111.19 115.42 110.925 114.431 110.661C113.02 110.276 112.007 109.663 112.007 108.424C112.007 107.306 112.827 106.452 114.25 106.224V105.517C114.25 105.29 114.435 105.106 114.663 105.106H115.079C115.307 105.106 115.492 105.29 115.492 105.517V106.152C116.176 106.179 116.673 106.295 117.068 106.434C117.271 106.505 117.381 106.722 117.325 106.928L117.16 107.537C117.096 107.772 116.844 107.9 116.616 107.814C116.252 107.677 115.738 107.535 115.07 107.535C114.225 107.535 113.984 107.884 113.984 108.196C113.984 108.58 114.491 108.845 115.588 109.182C117.156 109.65 117.808 110.3 117.808 111.466C117.808 112.536 117.012 113.498 115.468 113.738V114.529C115.468 114.756 115.283 114.94 115.055 114.94H114.639C114.411 114.941 114.226 114.757 114.226 114.529Z" fill="url(#paint19_linear_8_896)"/>
<path d="M149.402 172.286C145.389 172.286 141.986 171.437 139.192 169.741C136.397 168.045 135 165.822 135 163.071C135 161.036 135.716 159.321 137.15 157.928C138.582 156.536 140.32 155.839 142.362 155.839C144.512 155.839 146.24 156.393 147.548 157.5C148.855 158.607 149.509 160.071 149.509 161.893C149.509 163.214 149.241 164.241 148.703 164.973C148.166 165.705 147.548 166.357 146.849 166.928C146.151 167.5 145.64 167.911 145.318 168.161C145.067 168.447 144.942 168.803 144.942 169.232C144.942 169.768 145.282 170.259 145.963 170.705C146.643 171.152 147.467 171.375 148.435 171.375C151.372 171.375 153.763 169.786 155.609 166.607C157.454 163.429 158.376 160.161 158.376 156.803C158.376 154.911 157.991 153.402 157.221 152.277C156.45 151.152 155.17 150.589 153.379 150.589C152.483 150.589 151.641 150.696 150.853 150.911C150.101 151.197 149.366 151.465 148.65 151.714C148.22 151.714 148.005 151.429 148.005 150.857C148.005 150.5 148.472 150.241 149.407 150.08C150.341 149.92 151.24 149.839 152.104 149.839C155.124 149.839 157.642 148.786 159.655 146.679C161.669 144.572 162.675 141.947 162.675 138.804C162.675 137.268 162.225 135.947 161.325 134.839C160.425 133.732 158.986 133.179 157.006 133.179C155.35 133.179 153.973 133.437 152.876 133.953C151.777 134.469 151.229 135.084 151.229 135.795C151.229 136.543 152.08 137.157 153.782 137.637C155.483 138.118 156.334 139.408 156.334 141.509C156.334 143.04 155.725 144.25 154.507 145.14C153.289 146.03 151.766 146.475 149.939 146.475C148.184 146.475 146.769 145.994 145.694 145.033C144.619 144.072 144.082 142.772 144.082 141.134C144.082 139.424 144.798 137.903 146.231 136.567C147.664 135.232 149.258 134.253 151.014 133.63C152.769 133.007 154.382 132.579 155.853 132.347C157.324 132.116 158.903 132 160.591 132C164.795 132 168.324 132.722 171.181 134.163C174.037 135.605 175.465 137.626 175.465 140.225C175.465 143.252 174.157 145.541 171.542 147.089C168.927 148.638 165.935 149.413 162.568 149.413V149.84C165.613 149.84 168.112 150.654 170.064 152.283C172.017 153.912 172.993 155.872 172.993 158.164C172.993 162.997 170.668 166.558 166.018 168.849C161.368 171.141 155.829 172.286 149.402 172.286Z" fill="url(#paint20_linear_8_896)"/>
<path d="M217.811 148.339C217.811 154.518 215.285 160.054 210.234 164.946C205.182 169.839 199.253 172.286 192.446 172.286C187.86 172.286 184.278 170.768 181.698 167.732C179.119 164.697 177.829 160.768 177.829 155.946C177.829 149.482 180.435 143.875 185.648 139.125C190.861 134.375 196.709 132 203.194 132C207.672 132 211.228 133.473 213.861 136.42C216.494 139.366 217.811 143.34 217.811 148.339ZM208.03 135.804C208.03 134.875 207.788 134.179 207.305 133.714C206.821 133.25 206.096 133.018 205.128 133.018C204.018 133.018 202.987 133.438 202.038 134.277C201.089 135.116 199.754 137.089 198.035 140.196C196.315 143.304 194.147 148.295 191.532 155.17C188.917 162.045 187.61 166.482 187.61 168.482C187.61 169.411 187.851 170.107 188.335 170.571C188.819 171.036 189.544 171.268 190.511 171.268C191.658 171.268 192.688 170.848 193.601 170.009C194.515 169.17 195.867 167.161 197.659 163.982C199.45 160.804 201.626 155.795 204.188 148.955C206.749 142.117 208.03 137.732 208.03 135.804Z" fill="url(#paint21_linear_8_896)"/>
<path d="M165.645 181.098C165.573 181.277 165.522 181.413 165.49 181.506C165.458 181.6 165.443 181.687 165.443 181.768C165.443 181.83 165.458 181.877 165.49 181.908C165.521 181.94 165.568 181.955 165.631 181.955C165.908 181.955 166.184 181.777 166.457 181.419C166.73 181.063 166.923 180.792 167.035 180.609C167.147 180.427 167.292 180.183 167.471 179.88L167.646 179.96C167.35 180.505 167.088 180.938 166.86 181.259C166.632 181.581 166.331 181.867 165.96 182.116C165.588 182.366 165.165 182.491 164.691 182.491C164.279 182.491 163.936 182.364 163.663 182.11C163.39 181.856 163.254 181.514 163.254 181.086L163.267 180.912C162.918 181.439 162.575 181.834 162.24 182.097C161.904 182.36 161.485 182.492 160.983 182.492C160.428 182.492 159.98 182.304 159.64 181.929C159.299 181.554 159.129 181.041 159.129 180.389C159.129 179.363 159.557 178.354 160.413 177.363C161.268 176.371 162.238 175.876 163.321 175.876C163.76 175.876 164.102 175.956 164.349 176.117C164.595 176.278 164.718 176.532 164.718 176.88L164.705 177.081C164.759 176.939 164.931 176.501 165.222 175.769C165.512 175.037 165.717 174.521 165.833 174.222C165.949 173.923 166.035 173.695 166.089 173.539C166.142 173.383 166.169 173.264 166.169 173.184C166.169 173.015 166.097 172.91 165.954 172.869C165.811 172.829 165.493 172.809 165 172.809V172.595H169.098L165.645 181.098ZM164.53 176.853C164.53 176.71 164.498 176.603 164.436 176.531C164.373 176.46 164.279 176.424 164.153 176.424C163.983 176.424 163.802 176.54 163.61 176.772C163.417 177.005 163.155 177.448 162.824 178.105C162.492 178.761 162.146 179.503 161.782 180.328C161.42 181.154 161.239 181.683 161.239 181.915C161.239 181.995 161.259 182.058 161.299 182.103C161.339 182.148 161.395 182.169 161.466 182.169C161.789 182.169 162.071 182.04 162.313 181.781C162.555 181.522 162.743 181.297 162.877 181.105C163.011 180.913 163.161 180.641 163.327 180.288C163.493 179.936 163.735 179.348 164.053 178.527C164.371 177.705 164.53 177.147 164.53 176.853Z" fill="url(#paint22_linear_8_896)"/>
<path d="M176.809 176.009L174.485 181.098C174.458 181.152 174.413 181.268 174.35 181.446C174.288 181.625 174.256 181.737 174.256 181.781C174.256 181.853 174.272 181.909 174.304 181.948C174.335 181.988 174.382 182.008 174.444 182.008C174.57 182.008 174.744 181.919 174.968 181.74C175.192 181.562 175.432 181.31 175.687 180.984C175.943 180.658 176.173 180.294 176.38 179.892L176.554 179.973C176.303 180.437 176.046 180.85 175.781 181.211C175.517 181.573 175.188 181.877 174.794 182.122C174.399 182.367 173.925 182.49 173.37 182.49C172.922 182.49 172.586 182.368 172.362 182.122C172.138 181.877 172.026 181.508 172.026 181.017C171.677 181.535 171.343 181.91 171.026 182.142C170.707 182.374 170.298 182.49 169.796 182.49C169.259 182.49 168.817 182.318 168.473 181.975C168.128 181.632 167.956 181.183 167.956 180.629C167.956 179.576 168.442 178.52 169.413 177.462C170.385 176.404 171.462 175.875 172.644 175.875C172.922 175.875 173.172 175.942 173.397 176.076C173.62 176.21 173.732 176.42 173.732 176.706L173.692 177.027L174.162 176.009H176.809V176.009ZM173.558 176.732C173.558 176.59 173.529 176.485 173.471 176.417C173.412 176.35 173.321 176.316 173.196 176.316C173.025 176.316 172.831 176.45 172.611 176.718C172.391 176.986 172.107 177.455 171.758 178.124C171.408 178.794 171.059 179.535 170.71 180.348C170.36 181.16 170.186 181.687 170.186 181.928C170.186 182.008 170.203 182.071 170.239 182.115C170.275 182.16 170.329 182.182 170.401 182.182C170.678 182.182 170.942 182.046 171.193 181.774C171.444 181.502 171.637 181.27 171.771 181.078C171.905 180.886 172.082 180.56 172.302 180.1C172.521 179.64 172.786 179.049 173.095 178.326C173.404 177.603 173.558 177.072 173.558 176.732Z" fill="url(#paint23_linear_8_896)"/>
<path d="M177.991 185.464C177.427 185.464 176.957 185.312 176.58 185.009C176.204 184.705 176.016 184.348 176.016 183.937C176.016 183.616 176.137 183.33 176.379 183.08C176.621 182.83 176.947 182.705 177.36 182.705C177.7 182.705 177.993 182.815 178.24 183.033C178.486 183.252 178.61 183.522 178.61 183.843C178.61 184.325 178.376 184.633 177.911 184.767C177.678 184.803 177.512 184.827 177.414 184.841C177.315 184.855 177.266 184.91 177.266 185.008C177.266 185.089 177.313 185.149 177.407 185.189C177.501 185.23 177.643 185.249 177.831 185.249C178.297 185.249 178.723 185.044 179.109 184.634C179.494 184.224 179.823 183.752 180.097 183.217C180.371 182.682 180.731 181.899 181.18 180.865L181.14 180.851C180.799 181.381 180.442 181.788 180.07 182.07C179.697 182.353 179.251 182.495 178.73 182.495C178.318 182.495 177.96 182.367 177.656 182.112C177.351 181.857 177.199 181.466 177.199 180.937C177.199 180.696 177.257 180.418 177.374 180.105C177.49 179.792 177.622 179.479 177.77 179.165C177.918 178.852 178.171 178.364 178.529 177.702C178.887 177.04 179.066 176.646 179.066 176.521C179.066 176.45 179.048 176.396 179.013 176.36C178.977 176.325 178.923 176.307 178.851 176.307C178.627 176.307 178.392 176.459 178.146 176.763C177.9 177.066 177.683 177.363 177.495 177.654C177.307 177.945 177.159 178.179 177.052 178.357L176.877 178.277C177.378 177.452 177.804 176.845 178.153 176.455C178.503 176.065 179 175.87 179.645 175.87C180.11 175.87 180.464 176.015 180.706 176.306C180.948 176.597 181.069 176.947 181.069 177.359C181.069 177.672 181.033 177.927 180.961 178.124C180.889 178.321 180.764 178.607 180.585 178.983C180.405 179.359 180.144 179.876 179.799 180.534C179.454 181.191 179.282 181.623 179.282 181.829C179.282 181.918 179.303 181.986 179.343 182.03C179.382 182.075 179.444 182.097 179.524 182.097C179.623 182.097 179.739 182.057 179.873 181.977C180.008 181.896 180.153 181.778 180.31 181.622C180.466 181.465 180.634 181.259 180.814 181.004C180.993 180.749 181.179 180.423 181.372 180.025C181.564 179.627 181.844 179.008 182.211 178.167C182.578 177.327 182.8 176.806 182.876 176.605C182.952 176.404 183.031 176.204 183.112 176.008H185.732C185.606 176.312 185.425 176.758 185.188 177.347C184.95 177.936 184.706 178.531 184.456 179.128C184.205 179.727 183.822 180.595 183.307 181.733C182.791 182.871 182.096 183.777 181.217 184.452C180.337 185.127 179.262 185.464 177.991 185.464Z" fill="url(#paint24_linear_8_896)"/>
<path d="M189.391 175.875C189.957 175.875 190.44 176.015 190.84 176.297C191.239 176.579 191.439 176.929 191.439 177.348C191.439 177.661 191.343 177.926 191.149 178.145C190.955 178.364 190.709 178.473 190.412 178.473C190.15 178.473 189.907 178.371 189.682 178.165C189.456 177.96 189.344 177.715 189.344 177.429C189.344 177.268 189.386 177.123 189.471 176.994C189.556 176.864 189.65 176.773 189.754 176.719C189.856 176.666 189.986 176.623 190.143 176.592C190.3 176.561 190.379 176.5 190.379 176.411C190.379 176.33 190.304 176.255 190.157 176.183C190.009 176.112 189.806 176.076 189.546 176.076C189.187 176.076 188.892 176.163 188.659 176.338C188.426 176.513 188.31 176.738 188.31 177.016C188.31 177.23 188.35 177.401 188.43 177.526C188.511 177.651 188.655 177.807 188.861 177.995L189.937 178.935C190.18 179.159 190.359 179.387 190.476 179.62C190.592 179.852 190.65 180.121 190.65 180.425C190.65 181.087 190.34 181.601 189.721 181.968C189.101 182.335 188.414 182.518 187.659 182.518C186.985 182.518 186.377 182.346 185.833 182C185.29 181.655 185.018 181.204 185.018 180.648C185.018 180.352 185.12 180.099 185.322 179.888C185.525 179.677 185.784 179.572 186.099 179.572C186.36 179.572 186.604 179.679 186.83 179.893C187.055 180.108 187.168 180.358 187.168 180.643C187.168 180.849 187.109 181.027 186.993 181.179C186.876 181.331 186.746 181.422 186.603 181.453C186.46 181.485 186.341 181.512 186.248 181.534C186.154 181.556 186.107 181.608 186.107 181.688C186.107 181.816 186.23 181.951 186.477 182.092C186.723 182.233 187.016 182.304 187.357 182.304C187.661 182.304 187.925 182.219 188.149 182.049C188.373 181.879 188.485 181.66 188.485 181.391C188.485 181.159 188.445 180.98 188.364 180.854C188.284 180.729 188.161 180.593 187.995 180.445C187.829 180.297 187.623 180.116 187.377 179.901C187.13 179.687 186.942 179.501 186.812 179.345C186.682 179.188 186.582 179.031 186.51 178.875C186.438 178.719 186.403 178.515 186.403 178.264C186.403 177.665 186.674 177.117 187.218 176.62C187.761 176.124 188.484 175.875 189.391 175.875Z" fill="url(#paint25_linear_8_896)"/>
<path d="M105.392 203.67C103.912 203.798 101.345 204.005 99.3214 204.094C98.1048 204.147 97.4046 204.028 97.001 203.867C97.0015 203.913 97.0031 203.955 97.0047 203.995C97.0144 204.207 97.1874 204.377 97.4024 204.389C101.226 204.602 104.268 204.463 105.351 204.397C105.575 204.384 105.708 204.141 105.594 203.951C105.536 203.856 105.467 203.762 105.392 203.67Z" fill="url(#paint26_linear_8_896)"/>
<path d="M99.3214 204.093C101.345 204.004 103.913 203.798 105.392 203.67C103.938 201.892 99.3214 200.693 99.3214 200.693H98.0177C97.1208 201.981 96.9913 203.208 97.001 203.867C97.404 204.028 98.1048 204.147 99.3214 204.093Z" fill="url(#paint27_linear_8_896)"/>
<path d="M97.7979 198.571L97.9198 200.978C97.9333 201.238 98.1289 201.457 98.3906 201.495C98.6512 201.532 99 201.537 99.3697 201.414C99.5976 201.339 99.7663 201.147 99.8082 200.914L100.23 198.572H97.7979V198.571Z" fill="url(#paint28_linear_8_896)"/>
<path d="M82.666 206.447C82.0244 206.332 81.7342 205.902 81.6127 205.444C81.6122 205.448 81.6111 205.452 81.6106 205.456C81.516 205.94 81.7353 206.442 82.1722 206.681C82.7009 206.969 83.2786 207.018 83.7279 206.995C84.2094 206.969 84.6511 206.712 84.894 206.301L84.8978 206.295C84.4147 206.603 83.736 206.639 82.666 206.447Z" fill="url(#paint29_linear_8_896)"/>
<path d="M85.691 199.313H84.6157C82.9778 199.27 81.9497 203.72 81.6128 205.444C81.7342 205.903 82.025 206.332 82.6661 206.447C83.736 206.639 84.4142 206.603 84.8973 206.295C85.7818 204.795 86.2209 202.598 86.4315 201.315C86.6717 199.857 85.691 199.313 85.691 199.313Z" fill="url(#paint30_linear_8_896)"/>
<path d="M84.7536 197.079L84.1565 199.446C84.0834 199.736 84.2226 200.036 84.4919 200.174C84.8256 200.345 85.2963 200.524 85.7284 200.472C85.9315 200.447 86.1003 200.305 86.1674 200.114L87.0439 197.624L84.7536 197.079Z" fill="url(#paint31_linear_8_896)"/>
<path d="M105.756 165.902C105.756 165.902 100.421 199.148 100.509 199.331C100.509 199.331 99.035 199.999 97.4288 199.416C97.4288 199.416 97.9113 181.644 99.042 174.829C99.042 174.829 89.9365 190.714 87.0448 198.629C87.0448 198.629 85.5369 198.45 84.2886 197.631C84.2886 197.631 94.0927 169.038 96.7081 165.23L105.756 165.902Z" fill="url(#paint32_linear_8_896)"/>
<path d="M99.254 174.656C99.2255 174.656 99.1965 174.649 99.1707 174.632C99.097 174.586 99.0745 174.489 99.1207 174.416L101.114 171.241C101.138 171.205 101.175 171.179 101.217 171.17L102.684 170.876C102.77 170.859 102.853 170.914 102.87 170.999C102.887 171.084 102.832 171.167 102.746 171.184L101.345 171.465L99.3878 174.582C99.3577 174.63 99.3066 174.656 99.254 174.656Z" fill="url(#paint33_linear_8_896)"/>
<path d="M130.239 133.347C130.239 133.347 126.639 134.139 124.45 135.146C124.015 135.347 123.668 135.697 123.47 136.128C122.815 137.558 120.856 141.144 117.056 142.855C117.603 143.58 118.485 145.085 118.868 147.617C121.151 145.923 123.121 143.095 124.067 138.458C124.067 138.458 124.787 138.848 125.686 138.413C126.161 138.183 126.709 137.857 127.12 137.601C127.53 137.345 127.836 136.949 127.954 136.485C128.111 135.872 128.019 135.333 128.019 134.756L129.87 134.184C129.869 134.184 130.425 133.975 130.239 133.347Z" fill="url(#paint34_linear_8_896)"/>
<path d="M118.868 147.617C118.484 145.086 117.603 143.579 117.055 142.855C114.695 143.919 111.624 144.259 107.714 142.908C107.353 142.784 106.978 142.711 106.596 142.688C104.515 142.567 97.6552 142.344 91.9793 144.214C90.7847 144.607 89.8174 145.488 89.3187 146.629C87.7834 150.141 85.2975 158.14 92.1986 162.179C92.729 160.867 93.3405 159.812 93.864 159.037C92.7526 157.169 92.4232 154.616 94.3954 151.292C95.8335 155.163 96.5079 160.811 96.6492 163.311C96.6955 164.133 96.5509 164.955 96.2269 165.715L96.1914 165.798C96.1221 165.96 96.2177 166.147 96.3918 166.186C100.277 167.056 104.317 166.82 105.525 166.72C105.74 166.703 105.919 166.549 105.969 166.341C107.858 158.406 107.862 152.993 107.4 149.571C109.167 149.965 114.571 150.805 118.868 147.617Z" fill="url(#paint35_linear_8_896)"/>
<path d="M107.408 149.785C107.33 149.785 107.262 149.727 107.252 149.648C106.808 146.307 105.905 144.849 105.895 144.835C105.849 144.761 105.871 144.664 105.944 144.618C106.017 144.572 106.115 144.593 106.161 144.666C106.2 144.727 107.11 146.187 107.564 149.607C107.575 149.693 107.515 149.772 107.429 149.783C107.421 149.784 107.414 149.785 107.408 149.785Z" fill="url(#paint36_linear_8_896)"/>
<path d="M97.8202 138.065C97.8202 138.065 97.4274 142.208 97.0813 143.433C97.0287 143.619 97.1098 143.815 97.2791 143.912C97.8665 144.246 99.275 144.792 101.202 143.851C101.514 143.698 101.702 143.374 101.687 143.03L101.517 139.028L97.8202 138.065Z" fill="url(#paint37_linear_8_896)"/>
<path d="M101.602 132.766C101.602 132.766 102.859 135.644 102.943 137.155C103.027 138.666 103.354 139.647 101.602 139.951C99.8492 140.255 98.373 139.385 97.5728 137.88C97.5728 137.88 96.3196 135.561 96.6006 134.611C96.8822 133.662 101.602 132.766 101.602 132.766Z" fill="url(#paint38_linear_8_896)"/>
<path d="M98.1722 136.798L98.2721 136.754C98.3989 136.698 98.4532 136.548 98.3898 136.425C98.1426 135.948 97.6611 134.858 98.2834 134.603C99.0852 134.275 102.263 133.629 102.948 132.505C103.607 131.425 103.023 130.031 102.146 129.634C102.087 129.608 102.018 129.629 101.988 129.686L101.915 129.824C101.865 129.918 101.725 129.904 101.695 129.801C101.666 129.703 101.535 129.684 101.48 129.771C101.27 130.107 100.701 130.652 99.1798 130.932C97.0179 131.329 95.5884 132.202 95.5529 133.691C95.5508 133.786 95.4498 133.839 95.3686 133.789C95.209 133.693 94.9537 133.647 94.612 133.933C94.0182 134.431 94.2611 135.722 95.5626 136.784C95.6244 136.834 95.6239 136.93 95.5572 136.974C95.3213 137.127 94.9693 137.491 95.8807 137.977C96.8233 138.48 97.5273 138.438 97.7987 138.394C97.8659 138.383 97.9094 138.318 97.8949 138.251L97.6058 136.943C97.5896 136.869 97.6461 136.799 97.7218 136.799H98.1722V136.798Z" fill="url(#paint39_linear_8_896)"/>
<path d="M98.2264 137.074C98.2264 137.074 97.7471 135.235 96.9201 135.751C96.093 136.266 97.3494 137.811 98.0142 137.88L98.2264 137.074Z" fill="url(#paint40_linear_8_896)"/>
<path d="M125.026 138.03C124.991 138.03 124.957 138.019 124.927 137.995C124.859 137.94 124.849 137.841 124.904 137.774C125.04 137.607 126.249 136.134 126.714 135.872C126.884 135.777 126.985 135.678 127.006 135.587C127.016 135.544 127.009 135.495 126.985 135.439L125.566 135.723L124.761 136.411C124.696 136.468 124.596 136.46 124.54 136.394C124.483 136.328 124.491 136.229 124.556 136.172L125.392 135.458C125.412 135.44 125.437 135.428 125.463 135.423L127.035 135.109C127.097 135.096 127.161 135.123 127.196 135.175C127.311 135.346 127.35 135.504 127.313 135.659C127.269 135.842 127.124 136.002 126.87 136.146C126.519 136.343 125.509 137.531 125.149 137.972C125.118 138.01 125.072 138.03 125.026 138.03Z" fill="#F8A570"/>
<path d="M98.1658 164.17L103.722 164.238L101.778 162.414C101.294 161.96 100.557 161.886 99.9983 162.247C99.6716 162.459 99.3174 162.746 99.0106 163.125C99.0106 163.125 95.5444 161.862 93.8646 159.037C93.3412 159.812 92.7296 160.867 92.1992 162.179C93.705 163.06 95.6578 163.753 98.1658 164.17Z" fill="url(#paint41_linear_8_896)"/>
<path d="M98.7643 164.884C98.775 164.885 98.7858 164.885 98.7965 164.885L112.901 164.87C113.25 164.869 113.532 164.59 113.532 164.247C113.531 163.903 113.247 163.618 112.9 163.625L98.7954 163.64C98.4467 163.64 98.1646 163.919 98.1646 164.263C98.1651 164.596 98.4306 164.868 98.7643 164.884Z" fill="url(#paint42_linear_8_896)"/>
<path d="M125.58 152.253H113.834C112.967 152.253 112.178 152.746 111.809 153.519L106.378 164.876H120.975C121.534 164.876 122.036 164.54 122.241 164.028L126.452 153.518C126.695 152.911 126.242 152.253 125.58 152.253Z" fill="url(#paint43_linear_8_896)"/>
<path d="M117.305 158.076C117.05 158.856 117.238 159.614 117.725 159.768C118.211 159.922 118.812 159.415 119.067 158.635C119.321 157.855 119.133 157.098 118.646 156.944C118.16 156.789 117.559 157.296 117.305 158.076Z" fill="url(#paint44_linear_8_896)"/>
<path d="M197.731 199.363C197.731 199.363 202.845 176.417 195.97 179.575C189.094 182.732 195.274 198.75 195.97 199.751C196.664 200.753 197.33 201.328 197.731 199.363Z" fill="url(#paint45_linear_8_896)"/>
<path d="M197.217 199.99C197.217 199.99 194.988 184.112 201.366 185.327C207.743 186.542 198.084 199.858 198.022 200.431C197.96 201.003 197.217 199.99 197.217 199.99Z" fill="url(#paint46_linear_8_896)"/>
<path d="M196.4 200.076C196.4 200.076 194.883 185.943 189.981 188.232C185.078 190.522 195.671 200.13 195.841 200.612C196.011 201.094 196.4 200.076 196.4 200.076Z" fill="url(#paint47_linear_8_896)"/>
<g opacity="0.7">
<path opacity="0.7" d="M198.17 182.168C198.131 182.168 198.095 182.142 198.084 182.103C197.88 181.42 197.541 180.962 197.078 180.74C196.424 180.427 195.739 180.696 195.732 180.698C195.686 180.717 195.633 180.694 195.615 180.648C195.596 180.602 195.618 180.55 195.665 180.531C195.696 180.519 196.431 180.229 197.156 180.577C197.667 180.822 198.038 181.319 198.257 182.052C198.271 182.1 198.244 182.15 198.196 182.164C198.188 182.167 198.179 182.168 198.17 182.168Z" fill="white"/>
<path opacity="0.7" d="M198.17 197.898C198.154 197.898 198.136 197.893 198.121 197.883C198.079 197.856 198.068 197.8 198.094 197.758C198.119 197.721 200.543 193.969 202.144 190.505C202.641 189.43 202.714 188.49 202.361 187.711C201.83 186.54 200.5 186.134 200.487 186.13C200.439 186.115 200.412 186.065 200.426 186.018C200.44 185.97 200.491 185.943 200.538 185.957C200.597 185.974 201.961 186.392 202.526 187.637C202.902 188.465 202.829 189.455 202.309 190.581C200.702 194.056 198.271 197.819 198.247 197.857C198.229 197.883 198.2 197.898 198.17 197.898Z" fill="white"/>
<path opacity="0.7" d="M195.112 197.851C195.069 197.851 195.03 197.821 195.022 197.777C195.02 197.762 194.73 196.204 193.325 191.955C192.784 190.319 192.061 189.313 191.234 189.048C190.516 188.817 189.951 189.22 189.945 189.224C189.905 189.254 189.848 189.244 189.819 189.204C189.789 189.164 189.798 189.108 189.838 189.078C189.864 189.06 190.48 188.619 191.286 188.875C192.184 189.162 192.928 190.179 193.497 191.899C194.908 196.165 195.198 197.731 195.201 197.746C195.209 197.795 195.177 197.842 195.128 197.851C195.122 197.851 195.117 197.851 195.112 197.851Z" fill="white"/>
</g>
<path d="M192.322 199.308L193.711 204.247C193.925 205.007 194.617 205.535 195.409 205.541L198.546 205.564C199.447 205.571 200.21 204.905 200.323 204.014L200.977 198.832L192.322 199.308Z" fill="url(#paint48_linear_8_896)"/>
<path d="M200.853 198.477L192.234 198.628C191.814 198.636 191.476 199.003 191.479 199.449C191.482 199.894 191.823 200.252 192.243 200.248L200.853 200.167C201.312 200.163 201.686 199.78 201.686 199.311C201.686 198.843 201.312 198.469 200.853 198.477Z" fill="url(#paint49_linear_8_896)"/>
<path d="M113.47 92.4781H116.038V94.4941H110.806V85.9981H113.47V92.4781ZM121.016 94.5781C120.216 94.5781 119.48 94.3901 118.808 94.0141C118.144 93.6381 117.616 93.1181 117.224 92.4541C116.832 91.7901 116.636 91.0421 116.636 90.2101C116.636 89.3781 116.832 88.6301 117.224 87.9661C117.616 87.3021 118.144 86.7861 118.808 86.4181C119.48 86.0421 120.216 85.8541 121.016 85.8541C121.816 85.8541 122.548 86.0421 123.212 86.4181C123.876 86.7861 124.4 87.3021 124.784 87.9661C125.176 88.6301 125.372 89.3781 125.372 90.2101C125.372 91.0421 125.176 91.7901 124.784 92.4541C124.4 93.1181 123.872 93.6381 123.2 94.0141C122.536 94.3901 121.808 94.5781 121.016 94.5781ZM121.016 92.0941C121.544 92.0941 121.952 91.9261 122.24 91.5901C122.528 91.2461 122.672 90.7861 122.672 90.2101C122.672 89.6261 122.528 89.1661 122.24 88.8301C121.952 88.4861 121.544 88.3141 121.016 88.3141C120.48 88.3141 120.068 88.4861 119.78 88.8301C119.492 89.1661 119.348 89.6261 119.348 90.2101C119.348 90.7861 119.492 91.2461 119.78 91.5901C120.068 91.9261 120.48 92.0941 121.016 92.0941ZM131.781 93.2101H128.949L128.529 94.4941H125.733L128.841 85.9981H131.913L135.009 94.4941H132.201L131.781 93.2101ZM131.133 91.2061L130.365 88.8421L129.597 91.2061H131.133ZM143.763 94.4941H141.099L138.279 90.2221V94.4941H135.615V85.9981H138.279L141.099 90.3421V85.9981H143.763V94.4941Z" fill="#93278F"/>
<defs>
<linearGradient id="paint0_linear_8_896" x1="229.699" y1="225.695" x2="119.914" y2="106.827" gradientUnits="userSpaceOnUse">
<stop stop-color="#B37CFF"/>
<stop offset="1" stop-color="#F895E7"/>
</linearGradient>
<linearGradient id="paint1_linear_8_896" x1="186.503" y1="124.888" x2="149.664" y2="243.623" gradientUnits="userSpaceOnUse">
<stop stop-color="#DDA9C0"/>
<stop offset="1" stop-color="#B796D1"/>
</linearGradient>
<linearGradient id="paint2_linear_8_896" x1="152.585" y1="143.208" x2="186.861" y2="28.9076" gradientUnits="userSpaceOnUse">
<stop stop-color="#CB9EDD"/>
<stop offset="1" stop-color="#D16383"/>
</linearGradient>
<linearGradient id="paint3_linear_8_896" x1="126.483" y1="190.105" x2="119.625" y2="-13.5137" gradientUnits="userSpaceOnUse">
<stop stop-color="#8E9BFF"/>
<stop offset="1" stop-color="#5B42FF"/>
</linearGradient>
<linearGradient id="paint4_linear_8_896" x1="132.639" y1="81.7523" x2="117.785" y2="214.886" gradientUnits="userSpaceOnUse">
<stop stop-color="#53D8FF"/>
<stop offset="1" stop-color="#3840F7"/>
</linearGradient>
<linearGradient id="paint5_linear_8_896" x1="137.295" y1="48.0884" x2="102.922" y2="93.4469" gradientUnits="userSpaceOnUse">
<stop stop-color="#2B3582"/>
<stop offset="1" stop-color="#150E42"/>
</linearGradient>
<linearGradient id="paint6_linear_8_896" x1="141.081" y1="50.9568" x2="106.708" y2="96.3154" gradientUnits="userSpaceOnUse">
<stop stop-color="#2B3582"/>
<stop offset="1" stop-color="#150E42"/>
</linearGradient>
<linearGradient id="paint7_linear_8_896" x1="123.53" y1="52.9284" x2="125.266" y2="93.1755" gradientUnits="userSpaceOnUse">
<stop stop-color="#53D8FF"/>
<stop offset="1" stop-color="#3840F7"/>
</linearGradient>
<linearGradient id="paint8_linear_8_896" x1="69.177" y1="129.427" x2="79.461" y2="117.453" gradientUnits="userSpaceOnUse">
<stop stop-color="#FDF53F"/>
<stop offset="1" stop-color="#D93C65"/>
</linearGradient>
<linearGradient id="paint9_linear_8_896" x1="85.3305" y1="108.775" x2="54.9436" y2="154.824" gradientUnits="userSpaceOnUse">
<stop stop-color="#FDF53F"/>
<stop offset="1" stop-color="#D93C65"/>
</linearGradient>
<linearGradient id="paint10_linear_8_896" x1="84.4196" y1="110.092" x2="68.2436" y2="137.334" gradientUnits="userSpaceOnUse">
<stop stop-color="#FDF53F"/>
<stop offset="1" stop-color="#D93C65"/>
</linearGradient>
<linearGradient id="paint11_linear_8_896" x1="79.0237" y1="117.497" x2="93.1373" y2="101.064" gradientUnits="userSpaceOnUse">
<stop stop-color="#FDF53F"/>
<stop offset="1" stop-color="#D93C65"/>
</linearGradient>
<linearGradient id="paint12_linear_8_896" x1="101.193" y1="89.1542" x2="59.4897" y2="152.352" gradientUnits="userSpaceOnUse">
<stop stop-color="#FDF53F"/>
<stop offset="1" stop-color="#D93C65"/>
</linearGradient>
<linearGradient id="paint13_linear_8_896" x1="99.9429" y1="90.9614" x2="77.7429" y2="128.348" gradientUnits="userSpaceOnUse">
<stop stop-color="#FDF53F"/>
<stop offset="1" stop-color="#D93C65"/>
</linearGradient>
<linearGradient id="paint14_linear_8_896" x1="85.8879" y1="141.495" x2="100.411" y2="124.586" gradientUnits="userSpaceOnUse">
<stop stop-color="#FDF53F"/>
<stop offset="1" stop-color="#D93C65"/>
</linearGradient>
<linearGradient id="paint15_linear_8_896" x1="108.699" y1="112.33" x2="65.7871" y2="177.36" gradientUnits="userSpaceOnUse">
<stop stop-color="#FDF53F"/>
<stop offset="1" stop-color="#D93C65"/>
</linearGradient>
<linearGradient id="paint16_linear_8_896" x1="107.413" y1="114.19" x2="84.5693" y2="152.66" gradientUnits="userSpaceOnUse">
<stop stop-color="#FDF53F"/>
<stop offset="1" stop-color="#D93C65"/>
</linearGradient>
<linearGradient id="paint17_linear_8_896" x1="103.803" y1="122.14" x2="114.443" y2="109.751" gradientUnits="userSpaceOnUse">
<stop stop-color="#FDF53F"/>
<stop offset="1" stop-color="#D93C65"/>
</linearGradient>
<linearGradient id="paint18_linear_8_896" x1="120.516" y1="100.771" x2="89.0747" y2="148.418" gradientUnits="userSpaceOnUse">
<stop stop-color="#FDF53F"/>
<stop offset="1" stop-color="#D93C65"/>
</linearGradient>
<linearGradient id="paint19_linear_8_896" x1="119.574" y1="102.134" x2="102.837" y2="130.321" gradientUnits="userSpaceOnUse">
<stop stop-color="#FDF53F"/>
<stop offset="1" stop-color="#D93C65"/>
</linearGradient>
<linearGradient id="paint20_linear_8_896" x1="135" y1="152.143" x2="175.465" y2="152.143" gradientUnits="userSpaceOnUse">
<stop stop-color="#2B3582"/>
<stop offset="1" stop-color="#150E42"/>
</linearGradient>
<linearGradient id="paint21_linear_8_896" x1="177.829" y1="152.143" x2="217.811" y2="152.143" gradientUnits="userSpaceOnUse">
<stop stop-color="#2B3582"/>
<stop offset="1" stop-color="#150E42"/>
</linearGradient>
<linearGradient id="paint22_linear_8_896" x1="159.129" y1="177.542" x2="169.097" y2="177.542" gradientUnits="userSpaceOnUse">
<stop stop-color="#2B3582"/>
<stop offset="1" stop-color="#150E42"/>
</linearGradient>
<linearGradient id="paint23_linear_8_896" x1="167.955" y1="179.183" x2="176.809" y2="179.183" gradientUnits="userSpaceOnUse">
<stop stop-color="#2B3582"/>
<stop offset="1" stop-color="#150E42"/>
</linearGradient>
<linearGradient id="paint24_linear_8_896" x1="176.016" y1="180.668" x2="185.729" y2="180.668" gradientUnits="userSpaceOnUse">
<stop stop-color="#2B3582"/>
<stop offset="1" stop-color="#150E42"/>
</linearGradient>
<linearGradient id="paint25_linear_8_896" x1="185.017" y1="179.197" x2="191.439" y2="179.197" gradientUnits="userSpaceOnUse">
<stop stop-color="#2B3582"/>
<stop offset="1" stop-color="#150E42"/>
</linearGradient>
<linearGradient id="paint26_linear_8_896" x1="97.0008" y1="204.087" x2="105.635" y2="204.087" gradientUnits="userSpaceOnUse">
<stop stop-color="#53D8FF"/>
<stop offset="1" stop-color="#3840F7"/>
</linearGradient>
<linearGradient id="paint27_linear_8_896" x1="97.0002" y1="202.4" x2="105.392" y2="202.4" gradientUnits="userSpaceOnUse">
<stop stop-color="#2B3582"/>
<stop offset="1" stop-color="#150E42"/>
</linearGradient>
<linearGradient id="paint28_linear_8_896" x1="97.7979" y1="200.045" x2="100.23" y2="200.045" gradientUnits="userSpaceOnUse">
<stop stop-color="#F9B776"/>
<stop offset="1" stop-color="#F47960"/>
</linearGradient>
<linearGradient id="paint29_linear_8_896" x1="81.5888" y1="206.221" x2="84.8977" y2="206.221" gradientUnits="userSpaceOnUse">
<stop stop-color="#53D8FF"/>
<stop offset="1" stop-color="#3840F7"/>
</linearGradient>
<linearGradient id="paint30_linear_8_896" x1="81.6129" y1="202.939" x2="86.4698" y2="202.939" gradientUnits="userSpaceOnUse">
<stop stop-color="#2B3582"/>
<stop offset="1" stop-color="#150E42"/>
</linearGradient>
<linearGradient id="paint31_linear_8_896" x1="84.1372" y1="198.78" x2="87.044" y2="198.78" gradientUnits="userSpaceOnUse">
<stop stop-color="#F9B776"/>
<stop offset="1" stop-color="#F47960"/>
</linearGradient>
<linearGradient id="paint32_linear_8_896" x1="84.5757" y1="193.98" x2="129.243" y2="156.505" gradientUnits="userSpaceOnUse">
<stop stop-color="#CB236D"/>
<stop offset="1" stop-color="#4C246D"/>
</linearGradient>
<linearGradient id="paint33_linear_8_896" x1="100.985" y1="154.274" x2="100.985" y2="201.082" gradientUnits="userSpaceOnUse">
<stop stop-color="#939DC6"/>
<stop offset="0.9964" stop-color="#E39AB7"/>
</linearGradient>
<linearGradient id="paint34_linear_8_896" x1="124.119" y1="137.743" x2="112.651" y2="152.709" gradientUnits="userSpaceOnUse">
<stop stop-color="#F9B776"/>
<stop offset="1" stop-color="#F47960"/>
</linearGradient>
<linearGradient id="paint35_linear_8_896" x1="87.9148" y1="136.515" x2="108.209" y2="156.329" gradientUnits="userSpaceOnUse">
<stop stop-color="#A737D5"/>
<stop offset="1" stop-color="#EF497A"/>
</linearGradient>
<linearGradient id="paint36_linear_8_896" x1="110.19" y1="139.069" x2="103.17" y2="155.589" gradientUnits="userSpaceOnUse">
<stop stop-color="#909AC6"/>
<stop offset="0.9964" stop-color="#E295B4"/>
</linearGradient>
<linearGradient id="paint37_linear_8_896" x1="98.4576" y1="147.393" x2="99.7095" y2="140.8" gradientUnits="userSpaceOnUse">
<stop stop-color="#F9B776"/>
<stop offset="1" stop-color="#F47960"/>
</linearGradient>
<linearGradient id="paint38_linear_8_896" x1="101.865" y1="135.3" x2="94.6958" y2="140.803" gradientUnits="userSpaceOnUse">
<stop stop-color="#F9B776"/>
<stop offset="1" stop-color="#F47960"/>
</linearGradient>
<linearGradient id="paint39_linear_8_896" x1="96.8068" y1="130.96" x2="103.473" y2="139.57" gradientUnits="userSpaceOnUse">
<stop stop-color="#2B3582"/>
<stop offset="1" stop-color="#150E42"/>
</linearGradient>
<linearGradient id="paint40_linear_8_896" x1="100.974" y1="134.138" x2="93.8046" y2="139.641" gradientUnits="userSpaceOnUse">
<stop stop-color="#F9B776"/>
<stop offset="1" stop-color="#F47960"/>
</linearGradient>
<linearGradient id="paint41_linear_8_896" x1="105.187" y1="152.076" x2="100.179" y2="159.611" gradientUnits="userSpaceOnUse">
<stop stop-color="#F9B776"/>
<stop offset="1" stop-color="#F47960"/>
</linearGradient>
<linearGradient id="paint42_linear_8_896" x1="96.3721" y1="161.155" x2="107.561" y2="164.836" gradientUnits="userSpaceOnUse">
<stop stop-color="#2B3582"/>
<stop offset="1" stop-color="#150E42"/>
</linearGradient>
<linearGradient id="paint43_linear_8_896" x1="111.781" y1="153.927" x2="119.77" y2="162.397" gradientUnits="userSpaceOnUse">
<stop stop-color="#2B3582"/>
<stop offset="1" stop-color="#150E42"/>
</linearGradient>
<linearGradient id="paint44_linear_8_896" x1="116.641" y1="156.038" x2="120.248" y2="161.487" gradientUnits="userSpaceOnUse">
<stop stop-color="#53D8FF"/>
<stop offset="1" stop-color="#3840F7"/>
</linearGradient>
<linearGradient id="paint45_linear_8_896" x1="195.966" y1="183.613" x2="202.495" y2="256.96" gradientUnits="userSpaceOnUse">
<stop stop-color="#C32B78"/>
<stop offset="1" stop-color="#593092"/>
</linearGradient>
<linearGradient id="paint46_linear_8_896" x1="189.383" y1="206.565" x2="206.306" y2="181.359" gradientUnits="userSpaceOnUse">
<stop stop-color="#A737D5"/>
<stop offset="1" stop-color="#EF497A"/>
</linearGradient>
<linearGradient id="paint47_linear_8_896" x1="191.847" y1="190.515" x2="198.633" y2="236.225" gradientUnits="userSpaceOnUse">
<stop stop-color="#A737D5"/>
<stop offset="1" stop-color="#EF497A"/>
</linearGradient>
<linearGradient id="paint48_linear_8_896" x1="192.322" y1="202.199" x2="200.976" y2="202.199" gradientUnits="userSpaceOnUse">
<stop stop-color="#18459F"/>
<stop offset="1" stop-color="#2874B5"/>
</linearGradient>
<linearGradient id="paint49_linear_8_896" x1="196.522" y1="198.703" x2="197.227" y2="206.623" gradientUnits="userSpaceOnUse">
<stop stop-color="#18459F"/>
<stop offset="1" stop-color="#2874B5"/>
</linearGradient>
</defs>
</svg>
