<svg width="100" height="100" viewBox="0 0 100 100" fill="none" xmlns="http://www.w3.org/2000/svg">
<path opacity="0.3" d="M95.6818 67.3919C85.5646 90.8511 58.8586 100.927 37.9342 99.2093C32.2211 98.7403 20.7257 97.7964 11.7502 89.3761C-5.48665 73.2058 -2.83196 39.4049 13.6687 19.505C15.7935 16.9422 30.5022 -0.227359 53.4228 0.00228246C70.204 0.170496 81.9824 9.57438 83.4147 10.7458C85.2239 12.2258 89.2146 15.7426 92.8111 21.3218C101.261 34.4317 102.004 52.7324 95.6818 67.3919Z" fill="url(#paint0_linear_8_1895)"/>
<path d="M87.1668 12.8906C87.0471 12.2613 86.159 12.2098 85.9702 12.822C84.1427 18.7391 78.8627 34.1058 71.1322 42.1365C58.5451 55.2121 49.8452 76.7395 57.4073 88.192C57.407 88.1923 100.189 81.4495 87.1668 12.8906Z" fill="url(#paint1_linear_8_1895)"/>
<path opacity="0.43" d="M85.5301 21.3613C85.5078 21.5006 85.4702 21.6788 85.4376 21.8427L85.3305 22.3427L85.1044 23.3416L84.6337 25.3359C84.3095 26.6631 83.9688 27.9863 83.6159 29.3063C82.9155 31.9473 82.171 34.5766 81.3721 37.1891C79.7621 42.4094 78.0217 47.5908 76.0015 52.664C74.9801 55.1954 73.9512 57.724 72.8155 60.2061C71.6802 62.6875 70.4868 65.1425 69.1996 67.5482C66.6427 72.3671 63.7222 77.001 60.303 81.2681C60.256 81.3256 60.2646 81.4099 60.3223 81.4563C60.3782 81.5017 60.4606 81.4935 60.5082 81.4406C62.3225 79.3781 63.9787 77.181 65.5396 74.92C67.0819 72.6453 68.4899 70.2843 69.8344 67.8896C72.4673 63.0686 74.7565 58.0668 76.7574 52.959C77.7623 50.4065 78.6827 47.8222 79.5658 45.2269C80.4471 42.6308 81.2722 40.0158 82.0198 37.3791C82.7718 34.7437 83.4855 32.0977 84.1239 29.4334C84.4402 28.1005 84.744 26.7648 85.0314 25.4256C85.1725 24.7552 85.314 24.0852 85.4444 23.4127L85.6329 22.402L85.7217 21.8952C85.7482 21.722 85.7794 21.5652 85.7995 21.3649C85.8066 21.292 85.7533 21.227 85.6802 21.2199C85.6099 21.2131 85.5469 21.262 85.5358 21.3306L85.5301 21.3613Z" fill="white"/>
<path d="M76.9841 0.439802C68.901 5.68442 23.1131 38.1214 45.9288 86.4218C45.9288 86.4218 81.587 72.803 78.2451 1.08123C78.2158 0.453731 77.5121 0.096947 76.9841 0.439802Z" fill="url(#paint2_linear_8_1895)"/>
<path opacity="0.43" d="M73.6468 9.50996C72.6673 10.8032 71.7276 12.1214 70.7997 13.4489C69.8736 14.7774 68.9658 16.1185 68.0752 17.471C66.2932 20.1753 64.5764 22.9224 62.9295 25.711C59.6378 31.2884 56.608 37.0252 53.9662 42.9412C51.3327 48.8573 49.0735 54.9576 47.4997 61.2508C47.1013 62.8222 46.7631 64.409 46.4657 66.0033C46.3955 66.4025 46.3153 66.8 46.2533 67.2011L46.062 68.4025C45.9513 69.2061 45.8338 70.009 45.7521 70.8164C45.387 74.0411 45.301 77.3021 45.5407 80.5453C45.5508 80.6814 45.6697 80.7835 45.8062 80.7735C45.9427 80.7635 46.0451 80.645 46.0351 80.5089V80.5082V80.506C45.7865 77.2996 45.8589 74.0679 46.2096 70.8657C46.2877 70.0639 46.4013 69.2661 46.5084 68.4679L46.694 67.2736C46.7541 66.875 46.8326 66.4797 46.9007 66.0825C47.1901 64.4968 47.5208 62.9175 47.9117 61.3526C49.4547 55.0847 51.6838 48.9951 54.289 43.0841C56.9025 37.1727 59.9058 31.4349 63.1721 25.8535C64.8064 23.0631 66.5107 20.3131 68.2808 17.6056C69.1654 16.2517 70.0671 14.9089 70.9871 13.5785C71.9085 12.2499 72.8436 10.9282 73.8138 9.6371L73.8145 9.63603C73.8492 9.5896 73.8399 9.52424 73.7933 9.4896C73.7471 9.4546 73.6816 9.46353 73.6468 9.50996Z" fill="white"/>
<path d="M4.62354 17.2217C4.62354 13.9835 7.25673 11.3585 10.5051 11.3585H60.5229C63.2822 11.3585 65.5579 13.5142 65.698 16.2617L69.3902 88.5524C69.4998 90.7024 67.8024 92.5156 65.6432 92.5549L8.31682 93.5927C6.288 93.6295 4.62389 92.0003 4.62389 89.9774V17.2217H4.62354Z" fill="url(#paint3_linear_8_1895)"/>
<path d="M16.6955 92.3637C16.6948 92.3637 16.6944 92.3637 16.6937 92.3637L10.2791 92.2812C8.13423 92.2533 6.38916 90.4912 6.38916 88.353V78.6984C6.38916 78.623 6.45042 78.562 6.52601 78.562C6.60161 78.562 6.66287 78.623 6.66287 78.6984V88.353C6.66287 90.3426 8.28649 91.9822 10.2823 92.008L16.697 92.0905C16.7725 92.0915 16.8331 92.1533 16.832 92.2287C16.8313 92.3037 16.77 92.3637 16.6955 92.3637Z" fill="white"/>
<path d="M6.52602 75.8443C6.45042 75.8443 6.38916 75.7833 6.38916 75.7079V74.1444C6.38916 74.069 6.45042 74.0079 6.52602 74.0079C6.60161 74.0079 6.66287 74.069 6.66287 74.1444V75.7079C6.66287 75.7833 6.60161 75.8443 6.52602 75.8443Z" fill="white"/>
<path d="M8.72122 12.4709C8.71513 11.4348 9.62905 10.6331 10.659 10.7724C17.4896 11.6956 40.9774 14.5516 60.3971 13.0656C61.2827 12.9977 62.0512 13.6666 62.0985 14.5509L65.9698 87.1637C66.0228 88.1594 65.2601 89.0109 64.262 89.0698C56.0944 89.5516 22.4583 91.4144 10.4606 90.1616C9.73043 90.0852 9.17621 89.4726 9.17191 88.7405L8.72122 12.4709Z" fill="url(#paint4_linear_8_1895)"/>
<path opacity="0.6" d="M9.52566 14.2907C9.51993 13.2935 10.3995 12.5221 11.3904 12.656C17.9637 13.5446 40.5669 16.2928 59.2555 14.8628C60.1078 14.7974 60.8472 15.4414 60.8927 16.2921L64.6182 86.1706C64.6695 87.1289 63.9354 87.9481 62.9745 88.0049C55.1147 88.4685 22.7447 90.261 11.1991 89.0556C10.4965 88.9824 9.96309 88.3924 9.9588 87.6881L9.52566 14.2907Z" fill="white"/>
<g opacity="0.6">
<path opacity="0.6" d="M57.3957 34.3377C57.6963 34.3377 57.9292 34.0931 57.9134 33.7938L57.9044 33.6259C57.8887 33.3266 57.6297 33.0795 57.3294 33.0766L14.988 32.6609C14.6874 32.6581 14.5739 32.8623 14.7354 33.1148L15.2237 33.8784C15.3853 34.1309 15.7633 34.3377 16.0639 34.3377H57.3957Z" fill="white"/>
</g>
<g opacity="0.6">
<path opacity="0.6" d="M15.3758 36.1531C15.0752 36.1485 14.9226 36.3717 15.0365 36.6489L15.3138 37.3231C15.4278 37.6003 15.767 37.8271 16.0673 37.8271H42.2556C42.5561 37.8271 42.7937 37.5821 42.7833 37.2828L42.7775 37.1156C42.7675 36.8164 42.5132 36.5674 42.2126 36.5628L15.3758 36.1531Z" fill="white"/>
</g>
<g opacity="0.6">
<path opacity="0.6" d="M57.3954 43.1092C57.696 43.1092 57.9288 42.8645 57.9131 42.5652L57.9041 42.3974C57.8883 42.0981 57.6293 41.851 57.3291 41.8481L14.988 41.4324C14.6874 41.4295 14.5739 41.6338 14.7354 41.8863L15.2237 42.6499C15.3853 42.9024 15.7633 43.1092 16.0639 43.1092H57.3954Z" fill="white"/>
</g>
<g opacity="0.6">
<path opacity="0.6" d="M15.3758 44.9246C15.0752 44.92 14.9226 45.1432 15.0365 45.4203L15.3138 46.0946C15.4278 46.3718 15.767 46.5986 16.0673 46.5986H42.2556C42.5561 46.5986 42.7937 46.3536 42.7833 46.0543L42.7775 45.8871C42.7675 45.5878 42.5132 45.3389 42.2126 45.3343L15.3758 44.9246Z" fill="white"/>
</g>
<g opacity="0.6">
<path opacity="0.6" d="M57.6544 52.7342C57.955 52.7342 58.1878 52.4895 58.1721 52.1903L58.1631 52.0224C58.1474 51.7231 57.8883 51.476 57.5881 51.4731L15.247 51.0574C14.9465 51.0545 14.8329 51.2588 14.9945 51.5113L15.4828 52.2749C15.6443 52.5274 16.0223 52.7342 16.3229 52.7342H57.6544Z" fill="white"/>
</g>
<g opacity="0.6">
<path opacity="0.6" d="M57.7841 58.1518C58.0846 58.1518 58.3175 57.9072 58.3017 57.6079L58.2928 57.4401C58.277 57.1408 58.018 56.8936 57.7178 56.8908L15.3767 56.4751C15.0761 56.4722 14.9625 56.6765 15.1241 56.929L15.6124 57.6926C15.774 57.9451 16.1519 58.1518 16.4525 58.1518H57.7841Z" fill="white"/>
</g>
<g opacity="0.6">
<path opacity="0.6" d="M57.9134 63.6991C58.214 63.6991 58.4469 63.4545 58.4311 63.1552L58.4222 62.9873C58.4064 62.6881 58.1474 62.4409 57.8472 62.4381L15.5061 62.0224C15.2055 62.0195 15.0919 62.2238 15.2535 62.4763L15.7418 63.2398C15.9034 63.4923 16.2813 63.6991 16.5819 63.6991H57.9134Z" fill="white"/>
</g>
<g opacity="0.6">
<path opacity="0.6" d="M57.7841 69.3749C58.0846 69.3749 58.3175 69.1302 58.3017 68.831L58.2928 68.6631C58.277 68.3638 58.018 68.1167 57.7178 68.1138L15.3767 67.6981C15.0761 67.6952 14.9625 67.8995 15.1241 68.152L15.6124 68.9156C15.774 69.1681 16.1519 69.3749 16.4525 69.3749H57.7841Z" fill="white"/>
</g>
<g opacity="0.6">
<path opacity="0.6" d="M57.9134 74.9215C58.214 74.9215 58.4469 74.6769 58.4311 74.3776L58.4222 74.2097C58.4064 73.9104 58.1474 73.6633 57.8472 73.6604L15.5061 73.2447C15.2055 73.2419 15.0919 73.4461 15.2535 73.6986L15.7418 74.4622C15.9034 74.7147 16.2813 74.9215 16.5819 74.9215H57.9134Z" fill="white"/>
</g>
<g opacity="0.6">
<path opacity="0.6" d="M57.9132 80.8555C58.2137 80.8555 58.4466 80.6108 58.4309 80.3116L58.4219 80.1437C58.4061 79.8444 58.1471 79.5973 57.8469 79.5944L15.5051 79.1787C15.2045 79.1759 15.0909 79.3802 15.2525 79.6327L15.7408 80.3962C15.9024 80.6487 16.2804 80.8555 16.5809 80.8555H57.9132Z" fill="white"/>
</g>
<path d="M38.6165 1.50166C36.8098 0.248806 35.2388 0.273449 34.1329 0.598805C33.124 0.895589 32.4702 1.8663 32.5662 2.91058L33.0431 8.09984L38.7182 8.60198C38.7182 8.60198 42.1596 3.95915 38.6165 1.50166ZM36.1208 5.68807C35.3395 5.68807 34.7057 5.05664 34.7057 4.27736C34.7057 3.49808 35.3391 2.86665 36.1208 2.86665C36.9026 2.86665 37.536 3.49808 37.536 4.27736C37.536 5.05664 36.9022 5.68807 36.1208 5.68807Z" fill="url(#paint5_linear_8_1895)"/>
<path d="M33.61 5.91707C33.5401 5.91707 33.4803 5.86386 33.4738 5.79279L33.3979 4.96636C33.3911 4.89136 33.4466 4.82494 33.5218 4.81779C33.5985 4.81065 33.6637 4.86636 33.6705 4.94136L33.7465 5.76779C33.7533 5.84279 33.6981 5.90921 33.6225 5.916C33.6182 5.91707 33.6139 5.91707 33.61 5.91707ZM33.4609 4.2978C33.3911 4.2978 33.3312 4.24458 33.3248 4.17351L33.2671 3.54602C33.1758 2.55138 33.8034 1.62532 34.76 1.34389C35.4374 1.14461 36.1353 1.11604 36.8343 1.25889C36.9085 1.27389 36.9561 1.34603 36.9411 1.41996C36.926 1.49353 36.854 1.54103 36.7795 1.52639C36.1249 1.39282 35.4715 1.41925 34.8377 1.60568C34.0062 1.85032 33.4606 2.65603 33.5401 3.52138L33.5978 4.14887C33.6046 4.22387 33.5494 4.2903 33.4738 4.29744C33.4692 4.29744 33.4652 4.2978 33.4609 4.2978Z" fill="white"/>
<path d="M25.2976 11.4538V8.84484C25.2976 7.94413 26.0464 7.2227 26.9492 7.25377L44.9936 7.8702C45.7943 7.8977 46.4427 8.5277 46.4907 9.32484L46.6415 11.8316L25.2976 11.4538Z" fill="url(#paint6_linear_8_1895)"/>
<path d="M32.0261 8.2366H31.2501C31.1745 8.2366 31.1133 8.17553 31.1133 8.10017C31.1133 8.02482 31.1745 7.96375 31.2501 7.96375H32.0261C32.1017 7.96375 32.163 8.02482 32.163 8.10017C32.163 8.17553 32.1017 8.2366 32.0261 8.2366Z" fill="white"/>
<path d="M26.2741 10.6344C26.1985 10.6344 26.1372 10.5734 26.1372 10.498V9.44267C26.1372 8.62731 26.8028 7.96375 27.6208 7.96375H30.4736C30.5492 7.96375 30.6104 8.02482 30.6104 8.10017C30.6104 8.17553 30.5492 8.2366 30.4736 8.2366H27.6208C26.9537 8.2366 26.4109 8.77767 26.4109 9.44231V10.4977C26.4113 10.5734 26.3497 10.6344 26.2741 10.6344Z" fill="white"/>
<path d="M17.9454 12.1122C17.9891 11.2086 18.7364 10.4986 19.6439 10.4986L51.1979 10.4979C52.3325 10.4979 53.3023 11.3118 53.4961 12.4265L53.523 12.5804C53.7351 13.8011 52.7921 14.9175 51.5493 14.9175H19.1764C18.4326 14.9175 17.8401 14.2975 17.8755 13.5572L17.9454 12.1122Z" fill="url(#paint7_linear_8_1895)"/>
<path d="M5.80446 45.2763C8.63762 45.2763 10.9344 42.9867 10.9344 40.1624C10.9344 37.338 8.63762 35.0485 5.80446 35.0485C2.97129 35.0485 0.674561 37.338 0.674561 40.1624C0.674561 42.9867 2.97129 45.2763 5.80446 45.2763Z" fill="url(#paint8_linear_8_1895)"/>
<path d="M5.80507 45.1064C8.54405 45.1064 10.7644 42.893 10.7644 40.1625C10.7644 37.4321 8.54405 35.2186 5.80507 35.2186C3.06609 35.2186 0.845703 37.4321 0.845703 40.1625C0.845703 42.893 3.06609 45.1064 5.80507 45.1064Z" fill="url(#paint9_linear_8_1895)"/>
<path d="M1.71488 38.3168C1.68335 38.3168 1.65147 38.3097 1.62137 38.2947C1.51855 38.2429 1.47735 38.1179 1.5293 38.0158C2.34899 36.3972 3.98731 35.3915 5.80475 35.3915C6.09494 35.3915 6.38548 35.4176 6.66779 35.469C6.781 35.4893 6.85623 35.5976 6.83545 35.7104C6.81468 35.8233 6.70648 35.899 6.59327 35.8772C6.33533 35.8304 6.06986 35.8065 5.80475 35.8065C4.1453 35.8065 2.64957 36.7247 1.90117 38.2022C1.86427 38.275 1.79083 38.3168 1.71488 38.3168Z" fill="white"/>
<path opacity="0.78" d="M5.9122 44.4543C8.23033 44.4543 10.1096 42.581 10.1096 40.2701C10.1096 37.9592 8.23033 36.0858 5.9122 36.0858C3.59406 36.0858 1.71484 37.9592 1.71484 40.2701C1.71484 42.581 3.59406 44.4543 5.9122 44.4543Z" fill="white"/>
<path d="M5.50056 43.3807V42.9253C5.02444 42.9064 4.55368 42.7943 4.21907 42.6486C4.09977 42.5964 4.03887 42.4628 4.07326 42.3375L4.18933 41.9136C4.23197 41.7578 4.40142 41.6775 4.55082 41.74C4.88256 41.8786 5.29205 41.9882 5.73378 41.9882C6.19236 41.9882 6.53413 41.8332 6.53413 41.5157C6.53413 41.2289 6.26974 41.0586 5.63276 40.8882C4.7235 40.6404 4.07075 40.245 4.07075 39.4472C4.07075 38.7268 4.59918 38.1764 5.51632 38.0293V37.5739C5.51632 37.4275 5.63527 37.3086 5.78251 37.3086H6.05084C6.19773 37.3086 6.31703 37.4275 6.31703 37.5739V37.9829C6.75769 38.0004 7.07833 38.0754 7.33269 38.1647C7.4631 38.2104 7.53439 38.3504 7.49821 38.4832L7.39145 38.8754C7.35025 39.0264 7.18831 39.1093 7.04107 39.0539C6.80677 38.9657 6.47538 38.8736 6.04511 38.8736C5.50092 38.8736 5.34579 39.0982 5.34579 39.2997C5.34579 39.5475 5.67217 39.7179 6.37937 39.935C7.38965 40.2371 7.80918 40.6554 7.80918 41.4068C7.80918 42.0964 7.29615 42.7161 6.30163 42.8711V43.3803C6.30163 43.5268 6.18268 43.6457 6.03544 43.6457H5.7671C5.6195 43.6457 5.50056 43.5271 5.50056 43.3807Z" fill="url(#paint10_linear_8_1895)"/>
<path d="M14.9833 36.2025C18.8714 36.2025 22.0234 33.0603 22.0234 29.1843C22.0234 25.3083 18.8714 22.1661 14.9833 22.1661C11.0951 22.1661 7.94312 25.3083 7.94312 29.1843C7.94312 33.0603 11.0951 36.2025 14.9833 36.2025Z" fill="url(#paint11_linear_8_1895)"/>
<path d="M14.9831 35.9691C18.7418 35.9691 21.7889 32.9315 21.7889 29.1845C21.7889 25.4375 18.7418 22.3999 14.9831 22.3999C11.2243 22.3999 8.17725 25.4375 8.17725 29.1845C8.17725 32.9315 11.2243 35.9691 14.9831 35.9691Z" fill="url(#paint12_linear_8_1895)"/>
<path d="M9.37093 26.5299C9.34621 26.5299 9.32077 26.5242 9.29713 26.5124C9.21616 26.4717 9.18356 26.3732 9.2244 26.2928C10.3282 24.1125 12.5351 22.7582 14.983 22.7582C15.3739 22.7582 15.7651 22.7932 16.1459 22.8625C16.2351 22.8785 16.2943 22.9639 16.2781 23.0528C16.262 23.1417 16.1768 23.2025 16.0872 23.1842C15.7257 23.1185 15.3542 23.0853 14.983 23.0853C12.6594 23.0853 10.5654 24.3707 9.51746 26.4399C9.4888 26.4971 9.43076 26.5299 9.37093 26.5299Z" fill="white"/>
<path opacity="0.78" d="M19.204 33.3925C21.4535 31.15 21.4535 27.5141 19.204 25.2715C16.9544 23.029 13.3071 23.029 11.0576 25.2715C8.80801 27.5141 8.80801 31.15 11.0576 33.3925C13.3071 35.6351 16.9544 35.6351 19.204 33.3925Z" fill="white"/>
<path d="M14.5659 33.601V32.9764C13.9125 32.9503 13.2665 32.7967 12.8076 32.5964C12.6439 32.525 12.5601 32.3414 12.6073 32.1696L12.7664 31.5878C12.8248 31.3742 13.0577 31.2639 13.2626 31.3496C13.7179 31.54 14.2801 31.6903 14.8862 31.6903C15.5153 31.6903 15.9846 31.4778 15.9846 31.0417C15.9846 30.6485 15.6221 30.4146 14.7476 30.1807C13.4998 29.8403 12.6038 29.2982 12.6038 28.2032C12.6038 27.2143 13.3289 26.4596 14.5874 26.2575V25.6328C14.5874 25.4318 14.7508 25.2689 14.9525 25.2689H15.3208C15.5225 25.2689 15.6859 25.4318 15.6859 25.6328V26.1939C16.2902 26.2182 16.7305 26.3211 17.0798 26.4436C17.2586 26.5061 17.3564 26.6982 17.307 26.8807L17.1604 27.4189C17.1038 27.6264 16.8814 27.74 16.6797 27.6639C16.3583 27.5428 15.9037 27.4164 15.3126 27.4164C14.5659 27.4164 14.3528 27.7246 14.3528 28.001C14.3528 28.3414 14.8006 28.5753 15.7711 28.8728C17.1576 29.2875 17.7337 29.8618 17.7337 30.8928C17.7337 31.8392 17.0297 32.6896 15.6647 32.9025V33.6017C15.6647 33.8028 15.5014 33.9657 15.2997 33.9657H14.9314C14.7293 33.9653 14.5659 33.8021 14.5659 33.601Z" fill="url(#paint13_linear_8_1895)"/>
<path d="M19.8382 52.081C23.839 52.081 27.0822 48.8478 27.0822 44.8596C27.0822 40.8713 23.839 37.6382 19.8382 37.6382C15.8375 37.6382 12.5942 40.8713 12.5942 44.8596C12.5942 48.8478 15.8375 52.081 19.8382 52.081Z" fill="url(#paint14_linear_8_1895)"/>
<path d="M19.8382 51.8412C23.706 51.8412 26.8414 48.7155 26.8414 44.8598C26.8414 41.0041 23.706 37.8784 19.8382 37.8784C15.9704 37.8784 12.835 41.0041 12.835 44.8598C12.835 48.7155 15.9704 51.8412 19.8382 51.8412Z" fill="url(#paint15_linear_8_1895)"/>
<path d="M14.0636 42.1235C14.0388 42.1235 14.0134 42.1177 13.9898 42.106C13.9088 42.0652 13.8762 41.9667 13.917 41.886C15.052 39.6442 17.3208 38.2513 19.8383 38.2513C20.2392 38.2513 20.6415 38.2874 21.0338 38.3585C21.123 38.3746 21.1822 38.4599 21.166 38.5488C21.1499 38.6378 21.0643 38.6981 20.9751 38.6806C20.6021 38.6131 20.2195 38.5788 19.838 38.5788C17.4452 38.5788 15.2888 39.9028 14.2097 42.0335C14.1814 42.0906 14.1234 42.1235 14.0636 42.1235Z" fill="white"/>
<path opacity="0.78" d="M24.1814 49.1899C26.4962 46.8824 26.4962 43.1411 24.1814 40.8335C21.8667 38.526 18.1137 38.526 15.7989 40.8335C13.4842 43.1411 13.4842 46.8824 15.7989 49.1899C18.1137 51.4975 21.8667 51.4975 24.1814 49.1899Z" fill="white"/>
<path d="M19.4095 49.4047V48.7618C18.7374 48.735 18.0725 48.5768 17.5999 48.3707C17.4312 48.2972 17.3452 48.1086 17.3939 47.9315L17.5576 47.3325C17.6178 47.1129 17.8575 46.9993 18.0682 47.0872C18.5368 47.2829 19.115 47.4379 19.7387 47.4379C20.3861 47.4379 20.869 47.219 20.869 46.7704C20.869 46.3658 20.4961 46.125 19.5961 45.8843C18.3121 45.5343 17.3903 44.9761 17.3903 43.8493C17.3903 42.8318 18.1366 42.0551 19.4317 41.8472V41.2044C19.4317 40.9976 19.6001 40.8297 19.8075 40.8297H20.1866C20.394 40.8297 20.5624 40.9976 20.5624 41.2044V41.7815C21.1843 41.8061 21.6371 41.9122 21.9965 42.0383C22.1806 42.1029 22.2813 42.3004 22.2301 42.4883L22.0792 43.0422C22.0212 43.2558 21.7923 43.3726 21.5845 43.2943C21.2535 43.1697 20.7859 43.0397 20.178 43.0397C19.4098 43.0397 19.1902 43.3568 19.1902 43.6415C19.1902 43.9915 19.6513 44.2322 20.6498 44.5386C22.0764 44.9654 22.6689 45.5561 22.6689 46.6172C22.6689 47.5908 21.9445 48.4661 20.5398 48.685V49.4043C20.5398 49.6111 20.3714 49.779 20.164 49.779H19.7849C19.5775 49.7793 19.4095 49.6115 19.4095 49.4047Z" fill="url(#paint16_linear_8_1895)"/>
<path d="M29.1313 40.3137C32.0626 40.3137 34.4389 37.9448 34.4389 35.0226C34.4389 32.1005 32.0626 29.7316 29.1313 29.7316C26.2 29.7316 23.8237 32.1005 23.8237 35.0226C23.8237 37.9448 26.2 40.3137 29.1313 40.3137Z" fill="url(#paint17_linear_8_1895)"/>
<path d="M29.1313 40.138C31.9653 40.138 34.2627 37.8478 34.2627 35.0227C34.2627 32.1976 31.9653 29.9073 29.1313 29.9073C26.2974 29.9073 24 32.1976 24 35.0227C24 37.8478 26.2974 40.138 29.1313 40.138Z" fill="url(#paint18_linear_8_1895)"/>
<path d="M24.9002 33.0618C24.8755 33.0618 24.8501 33.0561 24.8264 33.0443C24.7455 33.0036 24.7129 32.905 24.7537 32.8243C25.5931 31.1668 27.2705 30.1372 29.1313 30.1372C29.4279 30.1372 29.7253 30.164 30.0151 30.2165C30.1043 30.2326 30.1634 30.3179 30.1473 30.4069C30.1312 30.4958 30.0455 30.5554 29.9563 30.5383C29.6858 30.4893 29.4082 30.4643 29.1313 30.4643C27.3948 30.4643 25.8299 31.4251 25.0468 32.9715C25.0181 33.029 24.9601 33.0618 24.9002 33.0618Z" fill="white"/>
<path opacity="0.78" d="M32.3132 38.1955C34.0092 36.5048 34.0092 33.7637 32.3132 32.0731C30.6173 30.3824 27.8676 30.3824 26.1716 32.0731C24.4757 33.7637 24.4757 36.5048 26.1716 38.1955C27.8676 39.8862 30.6173 39.8862 32.3132 38.1955Z" fill="white"/>
<path d="M28.817 38.3527V37.8816C28.3244 37.8619 27.8372 37.7459 27.4911 37.5952C27.3675 37.5412 27.3044 37.403 27.3399 37.2734L27.4599 36.8348C27.504 36.6737 27.6795 36.5905 27.8339 36.6552C28.1771 36.7987 28.601 36.912 29.0581 36.912C29.5324 36.912 29.8864 36.7516 29.8864 36.423C29.8864 36.1266 29.613 35.9502 28.9535 35.7738C28.0127 35.5173 27.3374 35.1084 27.3374 34.2827C27.3374 33.5373 27.8841 32.9681 28.8331 32.8159V32.3448C28.8331 32.1934 28.9564 32.0706 29.1083 32.0706H29.3859C29.5378 32.0706 29.661 32.1934 29.661 32.3448V32.7677C30.1168 32.7859 30.4485 32.8634 30.7118 32.9559C30.8469 33.0031 30.9203 33.1481 30.8831 33.2855L30.7727 33.6913C30.7301 33.8477 30.5624 33.9334 30.4102 33.8763C30.1676 33.7848 29.8251 33.6898 29.3795 33.6898C28.8166 33.6898 28.6558 33.9223 28.6558 34.1305C28.6558 34.387 28.9936 34.5634 29.7252 34.7877C30.7706 35.1002 31.2048 35.533 31.2048 36.3105C31.2048 37.0241 30.6742 37.6652 29.6449 37.8255V38.3527C29.6449 38.5041 29.5217 38.6269 29.3698 38.6269H29.0921C28.9402 38.6273 28.817 38.5044 28.817 38.3527Z" fill="url(#paint19_linear_8_1895)"/>
<path d="M52.2681 76.857C49.5929 76.857 47.3241 76.2917 45.4612 75.1606C43.5982 74.0299 42.6667 72.5477 42.6667 70.7142C42.6667 69.357 43.1443 68.2142 44.0998 67.2856C45.0549 66.3571 46.2135 65.8928 47.5749 65.8928C49.0079 65.8928 50.1601 66.2621 51.0321 66.9999C51.9037 67.7381 52.3397 68.7142 52.3397 69.9285C52.3397 70.8095 52.1606 71.4942 51.8023 71.982C51.4441 72.4702 51.0321 72.9049 50.5663 73.2856C50.1006 73.6667 49.7603 73.9406 49.5453 74.107C49.378 74.2977 49.2945 74.5356 49.2945 74.8213C49.2945 75.1784 49.5213 75.5059 49.9752 75.8034C50.4288 76.1013 50.9783 76.2499 51.6232 76.2499C53.5814 76.2499 55.1757 75.1906 56.4059 73.0713C57.6358 70.9524 58.251 68.7738 58.251 66.5356C58.251 65.2739 57.9941 64.2678 57.4807 63.5178C56.967 62.7678 56.1132 62.3928 54.9192 62.3928C54.3219 62.3928 53.7606 62.4642 53.2354 62.6071C52.7338 62.7978 52.2441 62.9764 51.7665 63.1428C51.4799 63.1428 51.3366 62.9524 51.3366 62.5714C51.3366 62.3335 51.6479 62.1607 52.2713 62.0535C52.8943 61.9464 53.4937 61.8928 54.0694 61.8928C56.0828 61.8928 57.7612 61.1907 59.1036 59.7857C60.446 58.381 61.117 56.631 61.117 54.5357C61.117 53.5121 60.8168 52.6311 60.2171 51.8928C59.617 51.155 58.6576 50.7857 57.3374 50.7857C56.2336 50.7857 55.3154 50.9582 54.5838 51.3018C53.8516 51.6461 53.4861 52.0557 53.4861 52.53C53.4861 53.0289 54.0533 53.4378 55.1879 53.7582C56.3221 54.0786 56.8896 54.9389 56.8896 56.3393C56.8896 57.36 56.4833 58.1667 55.6715 58.76C54.8593 59.3535 53.8444 59.65 52.6263 59.65C51.4559 59.65 50.5126 59.3296 49.7961 58.6885C49.0796 58.0478 48.7213 57.1814 48.7213 56.0893C48.7213 54.9496 49.1989 53.9353 50.1543 53.0446C51.1094 52.1546 52.1724 51.5018 53.3428 51.0864C54.5129 50.6714 55.588 50.3861 56.5689 50.2314C57.5491 50.0775 58.602 50 59.7277 50C62.53 50 64.8827 50.4811 66.7872 51.4421C68.6917 52.4036 69.6436 53.7507 69.6436 55.4835C69.6436 57.5014 68.7716 59.0271 67.0283 60.0592C65.2846 61.0921 63.2902 61.6085 61.0454 61.6085V61.8932C63.0753 61.8932 64.7412 62.436 66.0431 63.5221C67.3446 64.6081 67.9956 65.9149 67.9956 67.4424C67.9956 70.6645 66.4454 73.0388 63.3454 74.5663C60.2457 76.0938 56.5528 76.857 52.2681 76.857Z" fill="url(#paint20_linear_8_1895)"/>
<path d="M97.8741 60.8928C97.8741 65.0121 96.1903 68.7024 92.8227 71.9642C89.4551 75.2263 85.502 76.857 80.9643 76.857C77.907 76.857 75.5188 75.8452 73.7992 73.8213C72.0795 71.7977 71.2197 69.1785 71.2197 65.9642C71.2197 61.6549 72.9573 57.9167 76.4324 54.75C79.9075 51.5836 83.8064 50 88.1295 50C91.1149 50 93.4855 50.9821 95.2409 52.9464C96.9964 54.9107 97.8741 57.56 97.8741 60.8928ZM91.3538 52.5357C91.3538 51.9168 91.1926 51.4525 90.8702 51.1429C90.5477 50.8336 90.0641 50.6786 89.4192 50.6786C88.6787 50.6786 87.9919 50.9586 87.3592 51.5178C86.7262 52.0775 85.8367 53.3928 84.6902 55.4643C83.5438 57.5357 82.0986 60.8632 80.3553 65.4464C78.6117 70.0299 77.74 72.9881 77.74 74.3213C77.74 74.9406 77.9012 75.4049 78.2237 75.7142C78.5461 76.0238 79.0298 76.1784 79.6746 76.1784C80.4388 76.1784 81.1256 75.8988 81.7346 75.3392C82.3436 74.7799 83.245 73.4406 84.4394 71.3213C85.6335 69.2024 87.0845 65.8631 88.7923 61.3035C90.4997 56.7446 91.3538 53.8214 91.3538 52.5357Z" fill="url(#paint21_linear_8_1895)"/>
<path d="M63.0965 82.732C63.0485 82.8513 63.0144 82.942 62.9933 83.0041C62.9721 83.0666 62.9618 83.1249 62.9618 83.1784C62.9618 83.2202 62.9721 83.2513 62.9933 83.272C63.0141 83.2931 63.0456 83.3034 63.0871 83.3034C63.272 83.3034 63.4558 83.1845 63.6381 82.9463C63.8201 82.7084 63.9484 82.5281 64.0233 82.4063C64.0978 82.2845 64.1949 82.122 64.3142 81.9199L64.4306 81.9734C64.2336 82.3366 64.0587 82.6252 63.9068 82.8395C63.7549 83.0538 63.5543 83.2445 63.3068 83.4109C63.0588 83.5773 62.7769 83.6609 62.4605 83.6609C62.1858 83.6609 61.9576 83.5759 61.7756 83.4066C61.5932 83.237 61.5026 83.0095 61.5026 82.7238L61.5115 82.6077C61.2787 82.9591 61.0501 83.2224 60.8265 83.3977C60.603 83.5731 60.3235 83.6613 59.9889 83.6613C59.6185 83.6613 59.3201 83.5363 59.0933 83.2863C58.8661 83.0363 58.7529 82.6941 58.7529 82.2595C58.7529 81.5752 59.0381 80.9024 59.6085 80.2417C60.1784 79.5809 60.8251 79.2506 61.5473 79.2506C61.8397 79.2506 62.0683 79.3042 62.2323 79.4113C62.3964 79.5185 62.4788 79.6881 62.4788 79.9202L62.4699 80.0542C62.5057 79.9592 62.6207 79.6674 62.8145 79.1792C63.0083 78.6913 63.1445 78.3474 63.2222 78.1477C63.2996 77.9485 63.3566 77.7967 63.3924 77.6924C63.4282 77.5885 63.4461 77.5095 63.4461 77.456C63.4461 77.3431 63.3981 77.2731 63.3028 77.246C63.2072 77.2192 62.9951 77.206 62.6669 77.206V77.0631H65.3986L63.0965 82.732ZM62.3531 79.9017C62.3531 79.8067 62.3319 79.7352 62.2904 79.6874C62.2485 79.6399 62.1858 79.6159 62.1023 79.6159C61.9887 79.6159 61.868 79.6934 61.7397 79.8481C61.6111 80.0031 61.4366 80.2988 61.216 80.7367C60.9949 81.1742 60.7638 81.6684 60.5217 82.2188C60.2798 82.7695 60.1591 83.122 60.1591 83.2766C60.1591 83.3302 60.1727 83.372 60.1992 83.4016C60.2261 83.4316 60.2633 83.4463 60.311 83.4463C60.526 83.4463 60.714 83.3602 60.8753 83.1874C61.0365 83.0149 61.1619 82.8645 61.2514 82.7366C61.341 82.6088 61.4409 82.4274 61.5516 82.192C61.662 81.957 61.8232 81.5656 62.0353 81.0177C62.247 80.4702 62.3531 80.0981 62.3531 79.9017Z" fill="url(#paint22_linear_8_1895)"/>
<path d="M70.5394 79.3393L68.9899 82.7321C68.972 82.7678 68.9419 82.8453 68.9004 82.9643C68.8584 83.0836 68.8377 83.1578 68.8377 83.1875C68.8377 83.2353 68.8481 83.2725 68.8692 83.2989C68.89 83.3257 68.9215 83.3389 68.9631 83.3389C69.0465 83.3389 69.163 83.2796 69.3124 83.1603C69.4614 83.0414 69.6212 82.8732 69.7917 82.6561C69.9619 82.4389 70.1156 82.1961 70.2531 81.9282L70.3696 81.9818C70.2023 82.2914 70.0307 82.5668 69.8544 82.8075C69.6781 83.0486 69.4589 83.2511 69.1959 83.4146C68.933 83.5782 68.6166 83.6603 68.2465 83.6603C67.9478 83.6603 67.7238 83.5786 67.5748 83.4146C67.4254 83.2511 67.3509 83.0053 67.3509 82.6782C67.118 83.0236 66.8956 83.2736 66.6838 83.4282C66.4717 83.5828 66.1987 83.6603 65.8641 83.6603C65.5059 83.6603 65.2117 83.5457 64.9821 83.3168C64.7521 83.0878 64.6375 82.7886 64.6375 82.4196C64.6375 81.7175 64.9613 81.0132 65.609 80.3082C66.2568 79.6029 66.9747 79.2504 67.7629 79.2504C67.9478 79.2504 68.1151 79.295 68.2645 79.3843C68.4135 79.4736 68.4884 79.6136 68.4884 79.8039L68.4615 80.0182L68.775 79.3397H70.5394V79.3393ZM68.3719 79.8214C68.3719 79.7264 68.3526 79.6564 68.3139 79.6114C68.2748 79.5668 68.2139 79.5443 68.1305 79.5443C68.0169 79.5443 67.8872 79.6336 67.7407 79.8121C67.5942 79.9907 67.4046 80.3032 67.1718 80.7496C66.9389 81.1961 66.706 81.6904 66.4732 82.2318C66.2403 82.7736 66.1239 83.1246 66.1239 83.2853C66.1239 83.3389 66.1357 83.3807 66.1597 83.4103C66.1833 83.4403 66.2192 83.455 66.2672 83.455C66.452 83.455 66.6283 83.3643 66.7956 83.1828C66.9625 83.0014 67.0912 82.8468 67.1807 82.7186C67.2703 82.5907 67.3882 82.3736 67.5347 82.0668C67.6809 81.7604 67.8571 81.3661 68.0631 80.8839C68.2691 80.4018 68.3719 80.0479 68.3719 79.8214Z" fill="url(#paint23_linear_8_1895)"/>
<path d="M71.3276 85.6427C70.9514 85.6427 70.6379 85.5413 70.3872 85.3392C70.1364 85.1367 70.011 84.8985 70.011 84.6249C70.011 84.4106 70.0916 84.2199 70.2528 84.0535C70.414 83.8867 70.6318 83.8035 70.9066 83.8035C71.1334 83.8035 71.329 83.8763 71.4934 84.022C71.6575 84.1678 71.7399 84.3478 71.7399 84.562C71.7399 84.8835 71.5844 85.0888 71.2742 85.1781C71.1187 85.2017 71.0084 85.2181 70.9428 85.2274C70.8769 85.2363 70.8443 85.2735 70.8443 85.3388C70.8443 85.3924 70.8758 85.4324 70.9385 85.4595C71.0012 85.4863 71.0954 85.4995 71.2208 85.4995C71.5318 85.4995 71.8155 85.3627 72.0727 85.0895C72.3296 84.816 72.5492 84.5013 72.7316 84.1449C72.9139 83.7881 73.1543 83.2656 73.4535 82.5763L73.4266 82.5674C73.1995 82.9206 72.9616 83.1917 72.7133 83.3803C72.465 83.5688 72.1673 83.6631 71.8205 83.6631C71.5458 83.6631 71.3068 83.5781 71.104 83.4081C70.9009 83.2381 70.7995 82.977 70.7995 82.6249C70.7995 82.4638 70.8382 82.2788 70.9159 82.0699C70.9933 81.8613 71.0815 81.6524 71.1803 81.4435C71.2789 81.2349 71.4476 80.9096 71.6862 80.4681C71.9248 80.0267 72.0444 79.7642 72.0444 79.6806C72.0444 79.6331 72.0323 79.5974 72.0086 79.5735C71.9846 79.5499 71.9488 79.5378 71.9011 79.5378C71.7517 79.5378 71.5952 79.6392 71.4311 79.8417C71.2667 80.0442 71.1223 80.2421 70.9969 80.436C70.8715 80.6299 70.773 80.786 70.7013 80.9049L70.5849 80.851C70.9192 80.3013 71.2029 79.8963 71.4358 79.6363C71.6686 79.3763 72 79.2463 72.4299 79.2463C72.7402 79.2463 72.9763 79.3431 73.1375 79.5371C73.2987 79.731 73.3793 79.9649 73.3793 80.2392C73.3793 80.4481 73.3553 80.6181 73.3077 80.7492C73.2597 80.8806 73.1762 81.0713 73.0569 81.322C72.9372 81.5728 72.7628 81.917 72.5331 82.3556C72.3031 82.7942 72.1885 83.082 72.1885 83.2192C72.1885 83.2788 72.2021 83.3238 72.2286 83.3535C72.2551 83.3831 72.2959 83.3981 72.3497 83.3981C72.4152 83.3981 72.493 83.3713 72.5825 83.3178C72.6721 83.2642 72.7692 83.1853 72.8735 83.081C72.9777 82.9767 73.0898 82.8395 73.2095 82.6695C73.3288 82.4995 73.4528 82.282 73.5814 82.0167C73.7096 81.7513 73.8963 81.3385 74.141 80.7781C74.3857 80.2178 74.5336 79.8706 74.5845 79.7363C74.635 79.6024 74.6877 79.4696 74.7414 79.3385H76.4879C76.4041 79.541 76.2833 79.8385 76.1254 80.2313C75.967 80.6242 75.8044 81.0203 75.6374 81.4188C75.4701 81.8178 75.215 82.3967 74.8715 83.1553C74.5279 83.9142 74.0639 84.5181 73.4785 84.9678C72.8917 85.4181 72.1752 85.6427 71.3276 85.6427Z" fill="url(#paint24_linear_8_1895)"/>
<path d="M78.9277 79.25C79.305 79.25 79.6267 79.3436 79.8932 79.5314C80.1598 79.7193 80.2931 79.9525 80.2931 80.2321C80.2931 80.4407 80.2286 80.6175 80.0992 80.7636C79.9699 80.9096 79.8062 80.9821 79.6081 80.9821C79.4336 80.9821 79.2716 80.9139 79.1212 80.7768C78.9707 80.64 78.8958 80.4764 78.8958 80.2857C78.8958 80.1786 78.9241 80.0818 78.9811 79.9957C79.0377 79.9096 79.1004 79.8486 79.1692 79.8129C79.2376 79.7771 79.3243 79.7489 79.4289 79.7279C79.5332 79.7071 79.5858 79.6668 79.5858 79.6071C79.5858 79.5536 79.5364 79.5032 79.4382 79.4554C79.3397 79.4079 79.2039 79.3839 79.0305 79.3839C78.7916 79.3839 78.5945 79.4421 78.4394 79.5586C78.2839 79.675 78.2065 79.8254 78.2065 80.0104C78.2065 80.1536 78.2334 80.2671 78.2872 80.3504C78.3409 80.4339 78.4365 80.5382 78.5741 80.6636L79.2917 81.29C79.4533 81.4393 79.5726 81.5914 79.6507 81.7464C79.7284 81.9014 79.7671 82.0803 79.7671 82.2832C79.7671 82.7246 79.5604 83.0675 79.1473 83.3121C78.7339 83.5568 78.2761 83.6789 77.7731 83.6789C77.3238 83.6789 76.9179 83.5639 76.5557 83.3336C76.1935 83.1032 76.0122 82.8028 76.0122 82.4321C76.0122 82.235 76.0799 82.0661 76.215 81.9253C76.3501 81.785 76.5227 81.7146 76.733 81.7146C76.9071 81.7146 77.0694 81.7861 77.2199 81.9289C77.37 82.0718 77.4452 82.2386 77.4452 82.4289C77.4452 82.5661 77.4062 82.685 77.3288 82.7861C77.2511 82.8875 77.1644 82.9482 77.0691 82.9689C76.9734 82.99 76.8942 83.0078 76.8319 83.0225C76.7692 83.0375 76.738 83.0718 76.738 83.1253C76.738 83.2107 76.8201 83.3003 76.9845 83.3946C77.1486 83.4889 77.3442 83.5361 77.5714 83.5361C77.7741 83.5361 77.9504 83.4793 78.0998 83.3661C78.2488 83.2528 78.3237 83.1064 78.3237 82.9275C78.3237 82.7725 78.2968 82.6532 78.2431 82.5696C78.1893 82.4861 78.1073 82.3953 77.9966 82.2968C77.8859 82.1982 77.7487 82.0775 77.5846 81.9343C77.4202 81.7911 77.2948 81.6675 77.2084 81.5632C77.1217 81.4589 77.0547 81.3543 77.0071 81.25C76.9591 81.1457 76.9354 81.01 76.9354 80.8429C76.9354 80.4432 77.1164 80.0779 77.4786 79.7468C77.8408 79.4157 78.323 79.25 78.9277 79.25Z" fill="url(#paint25_linear_8_1895)"/>
<path d="M22.9276 97.7802C21.9413 97.8652 20.2299 98.003 18.8807 98.0623C18.0696 98.098 17.6028 98.0187 17.3337 97.9112C17.3341 97.9416 17.3352 97.9702 17.3362 97.9966C17.3427 98.138 17.4581 98.2512 17.6014 98.2595C20.1507 98.4013 22.1785 98.3084 22.9004 98.2648C23.0497 98.2559 23.1386 98.0941 23.0623 97.9673C23.024 97.9037 22.9777 97.8416 22.9276 97.7802Z" fill="url(#paint26_linear_8_1895)"/>
<path d="M18.8808 98.0622C20.23 98.0029 21.9417 97.8651 22.9277 97.7801C21.9582 96.5943 18.8808 95.795 18.8808 95.795H18.0116C17.4137 96.654 17.3274 97.4718 17.3338 97.9115C17.6025 98.0186 18.0697 98.0979 18.8808 98.0622Z" fill="url(#paint27_linear_8_1895)"/>
<path d="M17.8652 94.3809L17.9466 95.9855C17.9555 96.1591 18.0859 96.3052 18.2604 96.3302C18.4342 96.3548 18.6667 96.358 18.9131 96.2762C19.0651 96.2259 19.1775 96.0984 19.2055 95.943L19.4864 94.3812H17.8652V94.3809Z" fill="url(#paint28_linear_8_1895)"/>
<path d="M7.77742 99.6317C7.34966 99.5549 7.15621 99.2685 7.07524 98.9628C7.07488 98.9656 7.07416 98.9681 7.07381 98.971C7.01075 99.2938 7.15692 99.6285 7.44818 99.7874C7.80071 99.9796 8.18584 100.012 8.48534 99.9967C8.80634 99.9796 9.10083 99.8085 9.26276 99.5346L9.26527 99.5303C8.94319 99.7357 8.49071 99.7599 7.77742 99.6317Z" fill="url(#paint29_linear_8_1895)"/>
<path d="M9.79328 94.8754H9.07641C7.98444 94.8469 7.29909 97.8136 7.07446 98.9626C7.15543 99.2686 7.34925 99.5547 7.77665 99.6315C8.48994 99.7597 8.94206 99.7354 9.26413 99.5301C9.85383 98.5301 10.1465 97.0654 10.287 96.2104C10.4471 95.2383 9.79328 94.8754 9.79328 94.8754Z" fill="url(#paint30_linear_8_1895)"/>
<path d="M9.16945 93.3861L8.77142 94.9639C8.7227 95.1575 8.81549 95.3575 8.99498 95.4493C9.21746 95.5632 9.53129 95.6829 9.81933 95.6482C9.95476 95.6318 10.0672 95.5368 10.112 95.4097L10.6964 93.7493L9.16945 93.3861Z" fill="url(#paint31_linear_8_1895)"/>
<path d="M23.1706 72.6014C23.1706 72.6014 19.6138 94.7655 19.6722 94.8873C19.6722 94.8873 18.6898 95.3323 17.619 94.9441C17.619 94.9441 17.9407 83.096 18.6945 78.5528C18.6945 78.5528 12.6242 89.1427 10.6964 94.4195C10.6964 94.4195 9.69112 94.2998 8.85889 93.7538C8.85889 93.7538 15.3949 74.6921 17.1386 72.1532L23.1706 72.6014Z" fill="url(#paint32_linear_8_1895)"/>
<path d="M18.8363 78.4377C18.8173 78.4377 18.798 78.4327 18.7808 78.4216C18.7317 78.3909 18.7166 78.3263 18.7475 78.2773L20.0766 76.1609C20.092 76.1366 20.1167 76.1195 20.145 76.1138L21.1231 75.9173C21.1804 75.9063 21.2356 75.9427 21.247 75.9995C21.2585 76.0563 21.2216 76.1116 21.1646 76.123L20.2306 76.3102L18.9255 78.3884C18.9054 78.4202 18.8714 78.4377 18.8363 78.4377Z" fill="url(#paint33_linear_8_1895)"/>
<path d="M39.4931 50.8978C39.4931 50.8978 37.0932 51.4257 35.6333 52.0975C35.3434 52.231 35.112 52.4642 34.9805 52.7517C34.5438 53.7053 33.2376 56.096 30.7043 57.2367C31.0691 57.7196 31.6566 58.7235 31.9124 60.411C33.4339 59.282 34.7473 57.3967 35.3782 54.3049C35.3782 54.3049 35.8583 54.5653 36.4576 54.2753C36.774 54.1221 37.1394 53.9046 37.4138 53.7339C37.6872 53.5635 37.8907 53.2989 37.9698 52.9896C38.0741 52.5814 38.0128 52.2221 38.0128 51.8371L39.2467 51.456C39.2459 51.4557 39.6167 51.3164 39.4931 50.8978Z" fill="url(#paint34_linear_8_1895)"/>
<path d="M31.912 60.4112C31.6562 58.7237 31.0687 57.7194 30.704 57.2369C29.1301 57.9459 27.083 58.1723 24.4764 57.2719C24.236 57.1891 23.9855 57.1405 23.7312 57.1255C22.3436 57.0444 17.7705 56.8962 13.9866 58.1426C13.1901 58.4048 12.5453 58.9919 12.2128 59.7523C11.1893 62.0941 9.53197 67.4269 14.1327 70.1194C14.4863 69.2447 14.894 68.5415 15.243 68.0247C14.5021 66.779 14.2825 65.0776 15.5973 62.8615C16.556 65.4422 17.0056 69.2072 17.0998 70.8736C17.1306 71.4222 17.0343 71.9697 16.8182 72.4765L16.7946 72.5318C16.7484 72.6401 16.8121 72.7647 16.9282 72.7908C19.5181 73.3708 22.2118 73.2133 23.0168 73.1469C23.1605 73.1351 23.2798 73.0326 23.3127 72.894C24.572 67.604 24.5749 63.9951 24.2668 61.7141C25.4451 61.9766 29.0477 62.5369 31.912 60.4112Z" fill="url(#paint35_linear_8_1895)"/>
<path d="M24.2721 61.8566C24.2202 61.8566 24.1751 61.8184 24.1682 61.7655C23.8723 59.538 23.2701 58.5663 23.264 58.5566C23.2332 58.5077 23.2475 58.443 23.2966 58.412C23.3453 58.3813 23.4102 58.3955 23.4414 58.4445C23.4671 58.4848 24.0737 59.458 24.3764 61.738C24.3839 61.7955 24.3434 61.848 24.2861 61.8555C24.2811 61.8562 24.2764 61.8566 24.2721 61.8566Z" fill="url(#paint36_linear_8_1895)"/>
<path d="M17.8804 54.0436C17.8804 54.0436 17.6185 56.8054 17.3878 57.6222C17.3527 57.7461 17.4068 57.8768 17.5196 57.9411C17.9112 58.1639 18.8502 58.5279 20.1349 57.9004C20.3431 57.7986 20.4681 57.5825 20.4584 57.3536L20.3452 54.685L17.8804 54.0436Z" fill="url(#paint37_linear_8_1895)"/>
<path d="M20.4016 50.5105C20.4016 50.5105 21.2396 52.4294 21.2958 53.4369C21.3521 54.444 21.5699 55.0976 20.4016 55.3004C19.2333 55.5033 18.2492 54.9229 17.7158 53.9197C17.7158 53.9197 16.8803 52.3737 17.0677 51.7405C17.2554 51.1076 20.4016 50.5105 20.4016 50.5105Z" fill="url(#paint38_linear_8_1895)"/>
<path d="M18.1151 53.1987L18.1817 53.1694C18.2663 53.1323 18.3025 53.0319 18.2602 52.9498C18.0954 52.6323 17.7744 51.9052 18.1893 51.7355C18.7238 51.5169 20.8422 51.0862 21.2989 50.337C21.7382 49.617 21.3491 48.6873 20.7641 48.423C20.725 48.4052 20.6788 48.4195 20.6587 48.4573L20.61 48.5491C20.5767 48.612 20.4836 48.6027 20.4635 48.5341C20.4445 48.4684 20.3567 48.4559 20.3205 48.5138C20.1801 48.738 19.8007 49.1012 18.7868 49.288C17.3456 49.553 16.3926 50.1348 16.369 51.1277C16.3675 51.1909 16.3002 51.2259 16.2461 51.193C16.1397 51.1284 15.9695 51.098 15.7416 51.2887C15.3458 51.6205 15.5077 52.4812 16.3754 53.1891C16.4166 53.2227 16.4162 53.2869 16.3718 53.3159C16.2145 53.418 15.9799 53.6609 16.5875 53.9848C17.2159 54.3198 17.6852 54.2923 17.8661 54.2626C17.9109 54.2551 17.9399 54.2119 17.9302 54.1676L17.7375 53.2952C17.7268 53.2459 17.7644 53.1991 17.8149 53.1991H18.1151V53.1987Z" fill="url(#paint39_linear_8_1895)"/>
<path d="M18.1513 53.3826C18.1513 53.3826 17.8317 52.1569 17.2804 52.5005C16.729 52.844 17.5666 53.874 18.0098 53.9197L18.1513 53.3826Z" fill="url(#paint40_linear_8_1895)"/>
<path d="M36.0179 54.0201C35.9947 54.0201 35.9714 54.0126 35.9517 53.9965C35.9065 53.9601 35.8997 53.894 35.9366 53.8494C36.0273 53.7379 36.833 52.7561 37.1432 52.5815C37.2561 52.5179 37.3234 52.4522 37.3378 52.3915C37.3446 52.3626 37.3399 52.3301 37.3238 52.2929L36.3776 52.4818L35.8413 52.9404C35.7976 52.9783 35.731 52.9733 35.6934 52.9293C35.6554 52.8854 35.6608 52.8193 35.7045 52.7815L36.2616 52.3051C36.2752 52.2933 36.2916 52.2854 36.3092 52.2818L37.3567 52.0726C37.3987 52.064 37.4409 52.0818 37.4646 52.1168C37.5412 52.2304 37.5667 52.3361 37.5423 52.4393C37.5133 52.5615 37.4166 52.6679 37.2468 52.7636C37.0132 52.8951 36.3397 53.6872 36.1 53.9811C36.0788 54.0069 36.0484 54.0201 36.0179 54.0201Z" fill="#F8A570"/>
<path d="M18.1105 71.4464L21.8149 71.4921L20.5184 70.2757C20.1963 69.9732 19.7044 69.9243 19.3322 70.165C19.1144 70.3057 18.8783 70.4971 18.6737 70.75C18.6737 70.75 16.363 69.9082 15.2431 68.0247C14.8941 68.5414 14.4864 69.2447 14.1328 70.1193C15.1366 70.7068 16.4386 71.1689 18.1105 71.4464Z" fill="url(#paint41_linear_8_1895)"/>
<path d="M18.5099 71.9227C18.5171 71.9231 18.5243 71.9234 18.5314 71.9231L27.9343 71.9131C28.1668 71.9127 28.3549 71.7266 28.3549 71.4977C28.3545 71.2684 28.1653 71.0788 27.9336 71.0831L18.5307 71.0931C18.2982 71.0934 18.1101 71.2795 18.1101 71.5084C18.1105 71.7306 18.2874 71.912 18.5099 71.9227Z" fill="url(#paint42_linear_8_1895)"/>
<path d="M36.3871 63.502H28.5563C27.9788 63.502 27.4529 63.8309 27.2064 64.3463L23.5862 71.9177H33.3175C33.6898 71.9177 34.0244 71.6934 34.1612 71.352L36.9685 64.3456C37.1308 63.9409 36.8285 63.502 36.3871 63.502Z" fill="url(#paint43_linear_8_1895)"/>
<path d="M30.8702 67.384C30.7003 67.904 30.8257 68.409 31.1503 68.5119C31.4745 68.6147 31.8751 68.2769 32.0449 67.7569C32.2147 67.2369 32.0893 66.7319 31.7647 66.629C31.4402 66.5262 31.04 66.864 30.8702 67.384Z" fill="url(#paint44_linear_8_1895)"/>
<path d="M84.4872 94.9084C84.4872 94.9084 87.8963 79.6114 83.3128 81.7164C78.7293 83.8214 82.8492 94.4999 83.3128 95.1674C83.776 95.8352 84.2195 96.2188 84.4872 94.9084Z" fill="url(#paint45_linear_8_1895)"/>
<path d="M84.1451 95.3267C84.1451 95.3267 82.659 84.7411 86.9109 85.5511C91.1623 86.3611 84.723 95.2385 84.6818 95.6203C84.6402 96.0021 84.1451 95.3267 84.1451 95.3267Z" fill="url(#paint46_linear_8_1895)"/>
<path d="M83.6 95.3839C83.6 95.3839 82.589 85.9618 79.3206 87.4882C76.0522 89.0146 83.1142 95.42 83.2274 95.7414C83.3406 96.0628 83.6 95.3839 83.6 95.3839Z" fill="url(#paint47_linear_8_1895)"/>
<g opacity="0.7">
<path opacity="0.7" d="M84.7806 83.4449C84.7544 83.4449 84.7304 83.4281 84.7229 83.402C84.5868 82.9467 84.3611 82.6409 84.0522 82.4931C83.6162 82.2841 83.1598 82.4634 83.1551 82.4652C83.1243 82.4777 83.0892 82.4627 83.0767 82.432C83.0642 82.4013 83.0792 82.3663 83.11 82.3538C83.1308 82.3456 83.6212 82.1527 84.1045 82.3845C84.4452 82.5477 84.6921 82.8788 84.8383 83.3677C84.8479 83.3995 84.8297 83.4331 84.7978 83.4424C84.7924 83.4442 84.7863 83.4449 84.7806 83.4449Z" fill="white"/>
<path opacity="0.7" d="M84.7806 93.9316C84.7695 93.9316 84.758 93.9284 84.748 93.9219C84.72 93.9041 84.7121 93.8666 84.73 93.8387C84.7462 93.8137 86.3626 91.3123 87.4299 89.0034C87.7613 88.2863 87.81 87.6595 87.5746 87.1406C87.2203 86.3599 86.334 86.0892 86.325 86.0863C86.2931 86.0767 86.2749 86.0435 86.2845 86.0117C86.2939 85.9799 86.3275 85.962 86.3594 85.9713C86.3981 85.9828 87.3077 86.261 87.6846 87.0913C87.935 87.6435 87.8863 88.3034 87.5395 89.0538C86.4687 91.3705 84.8479 93.8791 84.8314 93.9044C84.82 93.9219 84.8006 93.9316 84.7806 93.9316Z" fill="white"/>
<path opacity="0.7" d="M82.7414 93.9006C82.7127 93.9006 82.6873 93.8802 82.6819 93.8513C82.6801 93.841 82.487 92.8027 81.5505 89.9695C81.1898 88.8788 80.7079 88.2085 80.1565 88.0317C79.6779 87.8781 79.3007 88.1463 79.2971 88.1488C79.2702 88.1688 79.2326 88.1624 79.2129 88.136C79.1932 88.1092 79.1989 88.0717 79.2258 88.0521C79.243 88.0396 79.6535 87.7456 80.1913 87.9167C80.7899 88.1078 81.2858 88.7856 81.6652 89.9324C82.6056 92.7763 82.7991 93.8202 82.8009 93.8306C82.8066 93.8635 82.7851 93.8945 82.7521 93.9006C82.7486 93.9002 82.745 93.9006 82.7414 93.9006Z" fill="white"/>
</g>
<path d="M80.8816 94.8718L81.8077 98.165C81.9503 98.6714 82.4117 99.0232 82.9394 99.0271L85.0309 99.0428C85.6314 99.0475 86.1401 98.6032 86.2153 98.0093L86.6513 94.555L80.8816 94.8718Z" fill="url(#paint48_linear_8_1895)"/>
<path d="M86.5686 94.3183L80.8229 94.419C80.5428 94.424 80.3178 94.669 80.3196 94.9662C80.3214 95.263 80.5492 95.5015 80.829 95.499L86.569 95.4447C86.8749 95.4419 87.1239 95.1865 87.1239 94.8744C87.1239 94.5619 86.8749 94.313 86.5686 94.3183Z" fill="url(#paint49_linear_8_1895)"/>
<path d="M28.8572 25.6495H30.9972V27.3295H26.6372V20.2495H28.8572V25.6495ZM35.1458 27.3995C34.4791 27.3995 33.8658 27.2428 33.3058 26.9295C32.7525 26.6161 32.3125 26.1828 31.9858 25.6295C31.6591 25.0761 31.4958 24.4528 31.4958 23.7595C31.4958 23.0661 31.6591 22.4428 31.9858 21.8895C32.3125 21.3361 32.7525 20.9061 33.3058 20.5995C33.8658 20.2861 34.4791 20.1295 35.1458 20.1295C35.8125 20.1295 36.4225 20.2861 36.9758 20.5995C37.5291 20.9061 37.9658 21.3361 38.2858 21.8895C38.6125 22.4428 38.7758 23.0661 38.7758 23.7595C38.7758 24.4528 38.6125 25.0761 38.2858 25.6295C37.9658 26.1828 37.5258 26.6161 36.9658 26.9295C36.4125 27.2428 35.8058 27.3995 35.1458 27.3995ZM35.1458 25.3295C35.5858 25.3295 35.9258 25.1895 36.1658 24.9095C36.4058 24.6228 36.5258 24.2395 36.5258 23.7595C36.5258 23.2728 36.4058 22.8895 36.1658 22.6095C35.9258 22.3228 35.5858 22.1795 35.1458 22.1795C34.6991 22.1795 34.3558 22.3228 34.1158 22.6095C33.8758 22.8895 33.7558 23.2728 33.7558 23.7595C33.7558 24.2395 33.8758 24.6228 34.1158 24.9095C34.3558 25.1895 34.6991 25.3295 35.1458 25.3295ZM44.1167 26.2595H41.7567L41.4067 27.3295H39.0767L41.6667 20.2495H44.2267L46.8067 27.3295H44.4667L44.1167 26.2595ZM43.5767 24.5895L42.9367 22.6195L42.2967 24.5895H43.5767ZM54.101 27.3295H51.881L49.531 23.7695V27.3295H47.311V20.2495H49.531L51.881 23.8695V20.2495H54.101V27.3295Z" fill="#93278F"/>
<defs>
<linearGradient id="paint0_linear_8_1895" x1="105.799" y1="112.463" x2="32.6095" y2="33.2179" gradientUnits="userSpaceOnUse">
<stop stop-color="#B37CFF"/>
<stop offset="1" stop-color="#F895E7"/>
</linearGradient>
<linearGradient id="paint1_linear_8_1895" x1="77.0022" y1="45.2588" x2="52.4423" y2="124.416" gradientUnits="userSpaceOnUse">
<stop stop-color="#DDA9C0"/>
<stop offset="1" stop-color="#B796D1"/>
</linearGradient>
<linearGradient id="paint2_linear_8_1895" x1="54.3902" y1="57.4717" x2="77.2408" y2="-18.7283" gradientUnits="userSpaceOnUse">
<stop stop-color="#CB9EDD"/>
<stop offset="1" stop-color="#D16383"/>
</linearGradient>
<linearGradient id="paint3_linear_8_1895" x1="36.9884" y1="88.737" x2="32.4168" y2="-47.009" gradientUnits="userSpaceOnUse">
<stop stop-color="#8E9BFF"/>
<stop offset="1" stop-color="#5B42FF"/>
</linearGradient>
<linearGradient id="paint4_linear_8_1895" x1="41.0923" y1="16.5016" x2="31.1899" y2="105.257" gradientUnits="userSpaceOnUse">
<stop stop-color="#53D8FF"/>
<stop offset="1" stop-color="#3840F7"/>
</linearGradient>
<linearGradient id="paint5_linear_8_1895" x1="44.1969" y1="-5.94106" x2="21.2814" y2="24.298" gradientUnits="userSpaceOnUse">
<stop stop-color="#2B3582"/>
<stop offset="1" stop-color="#150E42"/>
</linearGradient>
<linearGradient id="paint6_linear_8_1895" x1="46.7206" y1="-4.02867" x2="23.8051" y2="26.2104" gradientUnits="userSpaceOnUse">
<stop stop-color="#2B3582"/>
<stop offset="1" stop-color="#150E42"/>
</linearGradient>
<linearGradient id="paint7_linear_8_1895" x1="35.0197" y1="-2.71441" x2="36.177" y2="24.117" gradientUnits="userSpaceOnUse">
<stop stop-color="#53D8FF"/>
<stop offset="1" stop-color="#3840F7"/>
</linearGradient>
<linearGradient id="paint8_linear_8_1895" x1="-1.21526" y1="48.2848" x2="5.64072" y2="40.3021" gradientUnits="userSpaceOnUse">
<stop stop-color="#FDF53F"/>
<stop offset="1" stop-color="#D93C65"/>
</linearGradient>
<linearGradient id="paint9_linear_8_1895" x1="9.554" y1="34.5166" x2="-10.704" y2="65.2163" gradientUnits="userSpaceOnUse">
<stop stop-color="#FDF53F"/>
<stop offset="1" stop-color="#D93C65"/>
</linearGradient>
<linearGradient id="paint10_linear_8_1895" x1="8.94635" y1="35.3942" x2="-1.83769" y2="53.5555" gradientUnits="userSpaceOnUse">
<stop stop-color="#FDF53F"/>
<stop offset="1" stop-color="#D93C65"/>
</linearGradient>
<linearGradient id="paint11_linear_8_1895" x1="5.34955" y1="40.3315" x2="14.7586" y2="29.3761" gradientUnits="userSpaceOnUse">
<stop stop-color="#FDF53F"/>
<stop offset="1" stop-color="#D93C65"/>
</linearGradient>
<linearGradient id="paint12_linear_8_1895" x1="20.1282" y1="21.436" x2="-7.6737" y2="63.5681" gradientUnits="userSpaceOnUse">
<stop stop-color="#FDF53F"/>
<stop offset="1" stop-color="#D93C65"/>
</linearGradient>
<linearGradient id="paint13_linear_8_1895" x1="19.2951" y1="22.6407" x2="4.49511" y2="47.5651" gradientUnits="userSpaceOnUse">
<stop stop-color="#FDF53F"/>
<stop offset="1" stop-color="#D93C65"/>
</linearGradient>
<linearGradient id="paint14_linear_8_1895" x1="9.92541" y1="56.3299" x2="19.6072" y2="45.0569" gradientUnits="userSpaceOnUse">
<stop stop-color="#FDF53F"/>
<stop offset="1" stop-color="#D93C65"/>
</linearGradient>
<linearGradient id="paint15_linear_8_1895" x1="25.1326" y1="36.8867" x2="-3.47526" y2="80.2401" gradientUnits="userSpaceOnUse">
<stop stop-color="#FDF53F"/>
<stop offset="1" stop-color="#D93C65"/>
</linearGradient>
<linearGradient id="paint16_linear_8_1895" x1="24.2756" y1="38.1265" x2="9.04667" y2="63.7735" gradientUnits="userSpaceOnUse">
<stop stop-color="#FDF53F"/>
<stop offset="1" stop-color="#D93C65"/>
</linearGradient>
<linearGradient id="paint17_linear_8_1895" x1="21.8683" y1="43.4268" x2="28.9622" y2="35.1672" gradientUnits="userSpaceOnUse">
<stop stop-color="#FDF53F"/>
<stop offset="1" stop-color="#D93C65"/>
</linearGradient>
<linearGradient id="paint18_linear_8_1895" x1="33.0105" y1="29.1809" x2="12.0498" y2="60.9455" gradientUnits="userSpaceOnUse">
<stop stop-color="#FDF53F"/>
<stop offset="1" stop-color="#D93C65"/>
</linearGradient>
<linearGradient id="paint19_linear_8_1895" x1="32.3824" y1="30.0893" x2="21.2243" y2="48.8806" gradientUnits="userSpaceOnUse">
<stop stop-color="#FDF53F"/>
<stop offset="1" stop-color="#D93C65"/>
</linearGradient>
<linearGradient id="paint20_linear_8_1895" x1="42.6669" y1="63.4286" x2="69.6437" y2="63.4286" gradientUnits="userSpaceOnUse">
<stop stop-color="#2B3582"/>
<stop offset="1" stop-color="#150E42"/>
</linearGradient>
<linearGradient id="paint21_linear_8_1895" x1="71.2199" y1="63.4286" x2="97.8743" y2="63.4286" gradientUnits="userSpaceOnUse">
<stop stop-color="#2B3582"/>
<stop offset="1" stop-color="#150E42"/>
</linearGradient>
<linearGradient id="paint22_linear_8_1895" x1="58.7525" y1="80.3616" x2="65.3982" y2="80.3616" gradientUnits="userSpaceOnUse">
<stop stop-color="#2B3582"/>
<stop offset="1" stop-color="#150E42"/>
</linearGradient>
<linearGradient id="paint23_linear_8_1895" x1="64.637" y1="81.4555" x2="70.5393" y2="81.4555" gradientUnits="userSpaceOnUse">
<stop stop-color="#2B3582"/>
<stop offset="1" stop-color="#150E42"/>
</linearGradient>
<linearGradient id="paint24_linear_8_1895" x1="70.0108" y1="82.445" x2="76.4863" y2="82.445" gradientUnits="userSpaceOnUse">
<stop stop-color="#2B3582"/>
<stop offset="1" stop-color="#150E42"/>
</linearGradient>
<linearGradient id="paint25_linear_8_1895" x1="76.0116" y1="81.4644" x2="80.2928" y2="81.4644" gradientUnits="userSpaceOnUse">
<stop stop-color="#2B3582"/>
<stop offset="1" stop-color="#150E42"/>
</linearGradient>
<linearGradient id="paint26_linear_8_1895" x1="17.3336" y1="98.0578" x2="23.0901" y2="98.0578" gradientUnits="userSpaceOnUse">
<stop stop-color="#53D8FF"/>
<stop offset="1" stop-color="#3840F7"/>
</linearGradient>
<linearGradient id="paint27_linear_8_1895" x1="17.3333" y1="96.933" x2="22.9276" y2="96.933" gradientUnits="userSpaceOnUse">
<stop stop-color="#2B3582"/>
<stop offset="1" stop-color="#150E42"/>
</linearGradient>
<linearGradient id="paint28_linear_8_1895" x1="17.8652" y1="95.3633" x2="19.4867" y2="95.3633" gradientUnits="userSpaceOnUse">
<stop stop-color="#F9B776"/>
<stop offset="1" stop-color="#F47960"/>
</linearGradient>
<linearGradient id="paint29_linear_8_1895" x1="7.05926" y1="99.4813" x2="9.26523" y2="99.4813" gradientUnits="userSpaceOnUse">
<stop stop-color="#53D8FF"/>
<stop offset="1" stop-color="#3840F7"/>
</linearGradient>
<linearGradient id="paint30_linear_8_1895" x1="7.07453" y1="97.2927" x2="10.3125" y2="97.2927" gradientUnits="userSpaceOnUse">
<stop stop-color="#2B3582"/>
<stop offset="1" stop-color="#150E42"/>
</linearGradient>
<linearGradient id="paint31_linear_8_1895" x1="8.75853" y1="94.5202" x2="10.6964" y2="94.5202" gradientUnits="userSpaceOnUse">
<stop stop-color="#F9B776"/>
<stop offset="1" stop-color="#F47960"/>
</linearGradient>
<linearGradient id="paint32_linear_8_1895" x1="9.0503" y1="91.32" x2="38.8285" y2="66.3366" gradientUnits="userSpaceOnUse">
<stop stop-color="#CB236D"/>
<stop offset="1" stop-color="#4C246D"/>
</linearGradient>
<linearGradient id="paint33_linear_8_1895" x1="19.9902" y1="64.8495" x2="19.9902" y2="96.0547" gradientUnits="userSpaceOnUse">
<stop stop-color="#939DC6"/>
<stop offset="0.9964" stop-color="#E39AB7"/>
</linearGradient>
<linearGradient id="paint34_linear_8_1895" x1="35.4126" y1="53.8288" x2="27.7678" y2="63.8055" gradientUnits="userSpaceOnUse">
<stop stop-color="#F9B776"/>
<stop offset="1" stop-color="#F47960"/>
</linearGradient>
<linearGradient id="paint35_linear_8_1895" x1="11.2769" y1="53.0098" x2="24.806" y2="66.2194" gradientUnits="userSpaceOnUse">
<stop stop-color="#A737D5"/>
<stop offset="1" stop-color="#EF497A"/>
</linearGradient>
<linearGradient id="paint36_linear_8_1895" x1="26.127" y1="54.7128" x2="21.4474" y2="65.7261" gradientUnits="userSpaceOnUse">
<stop stop-color="#909AC6"/>
<stop offset="0.9964" stop-color="#E295B4"/>
</linearGradient>
<linearGradient id="paint37_linear_8_1895" x1="18.3053" y1="60.2621" x2="19.1399" y2="55.8667" gradientUnits="userSpaceOnUse">
<stop stop-color="#F9B776"/>
<stop offset="1" stop-color="#F47960"/>
</linearGradient>
<linearGradient id="paint38_linear_8_1895" x1="20.5774" y1="52.1998" x2="15.7978" y2="55.8684" gradientUnits="userSpaceOnUse">
<stop stop-color="#F9B776"/>
<stop offset="1" stop-color="#F47960"/>
</linearGradient>
<linearGradient id="paint39_linear_8_1895" x1="17.2048" y1="49.3065" x2="21.6492" y2="55.0466" gradientUnits="userSpaceOnUse">
<stop stop-color="#2B3582"/>
<stop offset="1" stop-color="#150E42"/>
</linearGradient>
<linearGradient id="paint40_linear_8_1895" x1="19.983" y1="51.4256" x2="15.2034" y2="55.0941" gradientUnits="userSpaceOnUse">
<stop stop-color="#F9B776"/>
<stop offset="1" stop-color="#F47960"/>
</linearGradient>
<linearGradient id="paint41_linear_8_1895" x1="22.7916" y1="63.3839" x2="19.4529" y2="68.4075" gradientUnits="userSpaceOnUse">
<stop stop-color="#F9B776"/>
<stop offset="1" stop-color="#F47960"/>
</linearGradient>
<linearGradient id="paint42_linear_8_1895" x1="16.9152" y1="69.4369" x2="24.3742" y2="71.8909" gradientUnits="userSpaceOnUse">
<stop stop-color="#2B3582"/>
<stop offset="1" stop-color="#150E42"/>
</linearGradient>
<linearGradient id="paint43_linear_8_1895" x1="27.1879" y1="64.6181" x2="32.5137" y2="70.2647" gradientUnits="userSpaceOnUse">
<stop stop-color="#2B3582"/>
<stop offset="1" stop-color="#150E42"/>
</linearGradient>
<linearGradient id="paint44_linear_8_1895" x1="30.4279" y1="66.0252" x2="32.8328" y2="69.658" gradientUnits="userSpaceOnUse">
<stop stop-color="#53D8FF"/>
<stop offset="1" stop-color="#3840F7"/>
</linearGradient>
<linearGradient id="paint45_linear_8_1895" x1="83.3104" y1="84.4086" x2="87.6627" y2="133.307" gradientUnits="userSpaceOnUse">
<stop stop-color="#C32B78"/>
<stop offset="1" stop-color="#593092"/>
</linearGradient>
<linearGradient id="paint46_linear_8_1895" x1="78.9223" y1="99.7099" x2="90.2041" y2="82.9058" gradientUnits="userSpaceOnUse">
<stop stop-color="#A737D5"/>
<stop offset="1" stop-color="#EF497A"/>
</linearGradient>
<linearGradient id="paint47_linear_8_1895" x1="80.5645" y1="89.01" x2="85.0891" y2="119.483" gradientUnits="userSpaceOnUse">
<stop stop-color="#A737D5"/>
<stop offset="1" stop-color="#EF497A"/>
</linearGradient>
<linearGradient id="paint48_linear_8_1895" x1="80.8815" y1="96.7991" x2="86.6511" y2="96.7991" gradientUnits="userSpaceOnUse">
<stop stop-color="#18459F"/>
<stop offset="1" stop-color="#2874B5"/>
</linearGradient>
<linearGradient id="paint49_linear_8_1895" x1="83.6817" y1="94.4686" x2="84.1517" y2="99.749" gradientUnits="userSpaceOnUse">
<stop stop-color="#18459F"/>
<stop offset="1" stop-color="#2874B5"/>
</linearGradient>
</defs>
</svg>
