<?xml version="1.0" standalone="no"?>
<!DOCTYPE svg PUBLIC "-//W3C//DTD SVG 20010904//EN"
 "http://www.w3.org/TR/2001/REC-SVG-20010904/DTD/svg10.dtd">
<svg version="1.0" xmlns="http://www.w3.org/2000/svg"
 width="3904.000000pt" height="3904.000000pt" viewBox="0 0 3904.000000 3904.000000"
 preserveAspectRatio="xMidYMid meet">
<metadata>
Created by potrace 1.14, written by Peter Selinger 2001-2017
</metadata>
<g transform="translate(0.000000,3904.000000) scale(0.100000,-0.100000)"
fill="#000000" stroke="none">
<path d="M19625 21728 l0 -1343 478 -1 c426 0 477 1 478 15 1 21 1 2642 0
2659 -1 9 -104 12 -479 12 l-478 0 1 -1342z"/>
<path d="M977 22964 c-3 -4 -225 -7 -492 -7 l-485 1 0 -3389 c0 -3221 1 -3389
18 -3390 124 -5 1614 0 1620 5 4 4 7 1530 7 3390 l1 3383 -88 -1 c-48 0 -88 2
-88 6 0 4 -7 5 -16 1 -24 -9 -464 -9 -467 0 -1 5 -6 5 -10 1z"/>
<path d="M3035 22961 c-16 -4 -73 -6 -126 -5 l-97 1 1 -3389 0 -3388 26 -1
c14 0 384 -1 821 -1 l795 -1 0 302 c0 165 4 301 8 301 5 0 5 4 2 10 -9 15 -11
230 -2 230 5 0 5 4 2 10 -9 15 -11 230 -2 230 5 0 5 4 2 10 -9 15 -11 230 -2
230 5 0 5 4 2 10 -9 15 -11 230 -2 230 5 0 5 5 2 10 -10 16 -11 950 -2 950 5
0 5 4 2 10 -9 15 -11 230 -2 230 5 0 5 4 2 10 -9 15 -11 230 -2 230 5 0 5 4 2
10 -9 15 -11 230 -2 230 5 0 5 4 2 10 -9 15 -11 230 -2 230 5 0 5 5 2 10 -9
15 -11 190 -2 190 5 0 5 5 1 11 -7 13 -8 148 -1 156 5 4 87 -112 87 -122 0 -3
17 -30 39 -62 21 -32 54 -83 73 -113 19 -30 65 -101 102 -158 36 -57 66 -107
66 -112 0 -6 4 -10 9 -10 5 0 16 -15 25 -34 8 -18 22 -39 31 -46 8 -7 15 -16
15 -21 0 -5 34 -61 75 -124 41 -64 75 -120 75 -125 0 -4 4 -10 9 -12 5 -1 17
-17 27 -35 11 -18 64 -102 119 -188 55 -86 105 -163 110 -172 6 -9 14 -22 18
-27 5 -6 37 -56 72 -111 35 -55 99 -155 142 -223 98 -154 111 -175 203 -319
41 -65 78 -122 83 -128 4 -5 23 -35 42 -65 19 -30 38 -60 42 -66 12 -15 30
-45 53 -84 11 -19 47 -75 79 -125 33 -49 88 -135 122 -190 35 -55 66 -101 71
-103 4 -2 8 -7 8 -12 0 -7 157 -259 178 -285 4 -5 19 -28 32 -50 13 -22 28
-41 32 -43 4 -2 8 -8 8 -13 0 -5 33 -60 73 -122 109 -168 169 -261 238 -372
35 -55 66 -101 71 -103 4 -2 8 -9 8 -16 0 -7 9 -23 20 -36 l20 -23 815 0 c449
0 818 3 821 6 4 4 9 6718 4 6768 0 4 -232 6 -515 5 -283 0 -515 3 -515 7 0 5
-5 5 -11 1 -7 -4 -144 -7 -305 -7 -208 0 -294 -3 -296 -11 -2 -6 -4 -860 -4
-1898 1 -1039 0 -1888 -1 -1888 -2 0 -25 35 -53 78 -27 42 -54 84 -60 92 -49
73 -210 322 -210 326 0 3 -5 10 -11 17 -9 11 -63 93 -267 407 -30 47 -83 128
-117 180 -120 183 -212 326 -260 400 -27 41 -79 121 -117 178 -37 56 -68 106
-68 111 0 4 -9 16 -20 26 -11 10 -20 22 -20 27 0 11 -42 72 -52 76 -5 2 -8 8
-8 13 0 6 -19 38 -42 73 -24 34 -86 129 -138 209 -52 81 -146 225 -208 320
-61 94 -116 179 -122 187 -22 34 -166 257 -175 272 -5 9 -25 37 -42 62 -18 26
-33 49 -33 51 0 1 -29 46 -64 98 -35 52 -65 98 -67 103 -2 5 -43 68 -90 139
-47 72 -118 180 -158 241 l-72 112 -375 -2 c-206 0 -374 2 -374 6 0 4 -7 5
-16 1 -20 -7 -623 -10 -627 -2 -1 3 -15 3 -32 0z"/>
<path d="M10577 22964 c-3 -4 -195 -7 -426 -7 l-419 0 0 -3388 c0 -2525 3
-3389 12 -3390 69 -4 1616 0 1624 4 6 5 10 647 10 1899 0 1041 1 1909 2 1928
l0 35 22 -35 c12 -19 26 -38 31 -41 5 -3 8 -9 8 -13 -1 -3 27 -50 62 -104 97
-149 231 -359 242 -379 6 -10 45 -71 88 -136 42 -65 77 -122 77 -127 0 -6 5
-10 10 -10 6 0 10 -7 10 -15 0 -8 4 -15 8 -15 5 0 14 -12 20 -26 11 -23 37
-64 198 -311 30 -46 54 -87 54 -92 0 -5 3 -11 8 -13 10 -4 82 -116 82 -127 0
-5 3 -11 8 -13 4 -1 23 -28 42 -58 19 -30 67 -106 107 -168 40 -62 73 -117 73
-122 0 -6 4 -10 9 -10 5 0 14 -13 21 -30 7 -16 16 -30 21 -30 5 0 9 -5 9 -10
0 -6 8 -23 19 -38 10 -15 43 -65 73 -112 30 -47 75 -116 100 -155 25 -38 65
-101 89 -140 24 -38 47 -74 52 -80 7 -9 58 -89 229 -360 34 -55 66 -104 71
-110 5 -5 65 -100 135 -210 69 -110 130 -201 134 -203 4 -2 8 -8 8 -13 0 -11
72 -123 83 -127 4 -2 7 -8 7 -13 0 -4 54 -92 120 -194 66 -103 120 -189 120
-191 0 -3 7 -12 16 -21 14 -14 104 -16 830 -16 448 0 817 3 820 5 3 4 7 4878
4 6629 l0 147 -295 -2 c-162 0 -295 2 -295 6 0 4 -7 5 -16 1 -24 -9 -464 -9
-464 0 0 5 -5 5 -11 1 -7 -4 -136 -7 -288 -7 l-276 0 0 -1899 0 -1899 -22 27
c-12 15 -27 39 -35 53 -7 14 -17 31 -21 36 -5 6 -43 64 -86 130 -222 341 -294
451 -371 570 -47 72 -88 132 -92 133 -5 2 -6 7 -3 12 2 4 -4 15 -15 25 -11 10
-20 24 -20 32 0 7 -3 13 -8 13 -4 0 -16 17 -27 38 -11 20 -24 42 -30 49 -5 7
-16 19 -22 27 -7 8 -13 18 -13 21 0 3 -42 69 -93 148 -208 316 -267 408 -267
417 0 4 -4 10 -8 12 -11 4 -72 97 -72 109 0 5 -4 9 -10 9 -5 0 -10 5 -10 11 0
6 -9 23 -21 37 -11 15 -37 54 -59 87 -21 33 -65 102 -99 153 -34 51 -61 96
-61 98 0 3 -5 10 -11 17 -21 25 -249 379 -249 388 0 5 -4 9 -8 9 -5 0 -14 11
-20 25 -7 14 -17 31 -22 38 -6 7 -47 68 -92 137 -44 69 -107 166 -139 215 -32
50 -63 95 -69 102 -5 7 -10 14 -10 16 0 3 -40 66 -90 141 -49 75 -90 140 -90
145 0 5 -3 11 -8 13 -4 2 -50 68 -101 148 -52 80 -98 148 -104 152 -6 3 -77 6
-159 5 -81 -1 -148 1 -148 5 0 4 -7 5 -16 1 -24 -9 -464 -9 -467 0 -1 5 -6 5
-10 1z"/>
<path d="M21143 22109 l-1 -860 57 -42 c31 -23 61 -46 67 -52 7 -5 36 -30 65
-55 83 -70 174 -166 260 -275 44 -55 84 -105 89 -112 6 -7 10 -14 10 -17 0 -2
16 -28 36 -58 42 -63 170 -321 180 -363 4 -16 11 -36 17 -42 5 -7 6 -13 3 -13
-4 0 -1 -10 5 -22 7 -13 16 -36 20 -53 4 -16 14 -55 22 -85 17 -62 43 -203 54
-295 14 -121 7 -533 -11 -625 -3 -14 -7 -41 -10 -60 -5 -29 -31 -139 -52 -215
-3 -11 -6 -24 -8 -30 -2 -11 -42 -119 -55 -150 -24 -59 -96 -200 -103 -203 -4
-2 -6 -7 -3 -12 3 -4 -2 -13 -10 -20 -8 -7 -15 -16 -15 -20 0 -22 -151 -229
-220 -301 -25 -26 -61 -64 -81 -85 -20 -22 -56 -56 -80 -76 -24 -20 -55 -47
-69 -58 -14 -12 -45 -36 -70 -53 -25 -17 -47 -33 -50 -37 -7 -8 -186 -113
-235 -138 -59 -29 -268 -110 -298 -116 -15 -2 -30 -7 -35 -10 -5 -3 -19 -7
-33 -10 -13 -2 -46 -10 -74 -16 -83 -19 -89 -20 -225 -37 -108 -13 -433 -5
-481 12 -8 2 -32 7 -54 9 -22 3 -58 10 -80 15 -22 6 -41 10 -42 11 -2 0 -4 0
-5 1 -2 0 -14 2 -27 5 -14 2 -45 11 -70 20 -25 9 -53 17 -61 19 -8 2 -31 10
-50 18 -19 8 -65 27 -102 42 -38 15 -68 32 -68 38 0 6 -3 8 -6 4 -4 -3 -19 0
-35 9 -16 8 -32 14 -35 13 -4 0 -10 3 -13 8 -3 5 -37 27 -76 50 -127 75 -294
209 -394 317 -20 21 -45 48 -56 60 -77 81 -192 250 -262 386 -46 88 -104 223
-118 273 -2 4 -3 8 -5 10 -1 1 -3 9 -6 17 -2 8 -13 49 -24 90 -23 82 -33 133
-34 168 -1 12 -4 22 -7 22 -3 0 -6 6 -6 13 -1 6 -4 39 -8 72 -15 125 -8 585
10 675 3 14 7 39 10 55 12 75 60 260 82 315 4 8 7 17 7 20 9 54 174 376 228
445 4 6 29 39 55 75 68 92 76 102 190 217 56 57 107 103 112 103 6 0 11 4 11
8 0 5 18 21 40 38 23 16 51 37 63 47 12 10 34 26 50 35 l27 16 0 858 0 857
-47 -15 c-27 -8 -59 -17 -73 -20 -14 -4 -29 -10 -35 -14 -12 -9 -67 -24 -77
-22 -5 1 -8 -3 -8 -10 0 -6 -3 -9 -6 -6 -5 5 -80 -22 -159 -57 -16 -7 -55 -23
-85 -36 -77 -33 -276 -135 -310 -159 -15 -11 -35 -20 -44 -20 -9 0 -16 -4 -16
-8 0 -5 -19 -19 -42 -32 -83 -46 -340 -229 -418 -297 -8 -7 -37 -32 -65 -56
-51 -44 -241 -233 -285 -283 -14 -16 -41 -47 -60 -69 -40 -46 -69 -84 -135
-170 -24 -33 -48 -64 -53 -70 -23 -29 -151 -230 -193 -303 -65 -113 -209 -408
-209 -429 0 -4 -6 -20 -14 -34 -24 -46 -129 -365 -141 -431 -2 -11 -7 -28 -10
-38 -11 -33 -53 -244 -60 -297 -2 -18 -7 -48 -10 -65 -3 -18 -8 -55 -11 -83
-2 -27 -7 -70 -9 -95 -3 -25 -7 -92 -10 -150 -2 -58 -5 -107 -5 -110 -7 -25
12 -411 24 -475 3 -16 8 -52 11 -80 5 -45 11 -84 21 -140 3 -11 7 -33 10 -50
2 -16 10 -48 16 -70 5 -22 12 -49 13 -60 5 -33 45 -174 73 -260 14 -44 27 -82
27 -85 14 -52 129 -316 185 -425 58 -113 165 -300 180 -315 3 -3 23 -32 45
-65 35 -54 154 -213 180 -241 5 -6 30 -36 55 -65 74 -88 241 -261 316 -326
141 -122 280 -233 293 -233 5 0 11 -4 13 -8 2 -5 32 -29 68 -53 36 -24 67 -47
68 -51 2 -5 7 -8 11 -8 4 0 59 -31 122 -68 113 -68 213 -121 339 -180 109 -51
150 -68 270 -112 63 -23 122 -44 130 -47 8 -3 20 -7 25 -8 6 -2 58 -17 116
-34 58 -17 117 -33 130 -35 13 -3 25 -5 27 -7 2 -2 1 -1 57 -14 22 -5 42 -9
45 -10 3 -1 25 -5 50 -9 25 -5 54 -10 65 -12 78 -15 137 -24 180 -29 28 -3 66
-8 85 -10 129 -16 195 -19 445 -19 249 0 363 5 445 20 22 3 88 12 155 19 11 1
27 5 35 8 8 3 31 8 50 11 41 6 79 13 135 27 22 5 51 12 65 15 88 18 296 84
427 136 56 21 105 39 107 40 7 0 356 174 391 195 55 33 320 205 325 212 3 3
30 25 61 48 31 23 63 49 72 58 10 9 17 14 17 11 0 -3 8 2 18 12 10 9 44 40 76
67 154 132 361 354 495 530 16 22 39 52 50 66 11 15 45 64 76 110 30 46 58 89
63 94 4 6 14 24 22 40 8 17 17 32 21 35 13 12 171 310 174 330 0 3 11 28 24
55 29 64 85 209 101 260 7 22 15 45 19 50 3 6 6 15 8 20 1 6 9 35 18 65 51
173 88 326 89 373 0 9 3 17 6 17 4 0 7 6 7 13 0 6 3 31 7 55 3 23 9 61 12 85
3 23 7 53 9 67 12 77 28 295 28 395 0 57 -12 273 -18 325 -2 19 -6 60 -9 91
-3 31 -8 70 -10 85 -3 16 -8 47 -11 69 -3 22 -8 51 -11 65 -2 14 -6 36 -9 50
-3 14 -7 36 -10 50 -3 14 -7 36 -10 50 -2 14 -9 46 -15 71 -6 26 -13 53 -14
60 -2 8 -5 21 -8 29 -5 14 -61 208 -64 220 0 3 -4 12 -7 20 -4 8 -18 49 -33
90 -30 87 -91 238 -105 260 -5 8 -12 22 -15 30 -22 58 -150 299 -170 321 -8 8
-14 19 -14 23 0 4 -10 22 -22 39 -13 18 -23 34 -23 37 0 3 -12 21 -28 41 -15
20 -27 41 -27 47 0 7 -4 12 -8 12 -4 0 -16 15 -27 33 -10 17 -21 34 -25 37 -3
3 -31 39 -62 80 -32 41 -67 87 -80 101 -13 14 -40 46 -61 70 -50 57 -226 237
-263 268 -113 96 -180 153 -189 160 -128 99 -373 261 -394 261 -6 0 -11 3 -11
8 0 4 -10 12 -23 18 -12 6 -81 41 -153 77 -137 69 -317 144 -469 195 -102 34
-198 62 -213 62 -6 0 -9 -318 -9 -861z"/>
<path d="M24018 22964 c-4 -4 -256 -7 -559 -7 -538 0 -551 0 -528 -18 13 -10
28 -19 33 -19 14 0 314 -203 387 -262 142 -114 179 -147 319 -288 80 -80 188
-197 239 -260 51 -63 99 -123 107 -133 8 -9 14 -20 14 -23 0 -2 5 -10 10 -17
40 -48 70 -92 70 -103 0 -8 4 -14 9 -14 5 0 24 -26 42 -57 18 -32 35 -60 38
-63 7 -6 14 -18 104 -180 10 -19 24 -41 31 -49 6 -8 10 -16 9 -18 -3 -3 76
-176 103 -225 8 -16 13 -28 9 -28 -3 0 2 -11 11 -25 9 -14 13 -25 9 -25 -4 0
-3 -6 3 -12 16 -20 101 -251 117 -318 2 -8 10 -35 18 -60 9 -25 25 -83 37
-130 11 -47 25 -98 29 -115 11 -35 28 -117 35 -160 3 -16 7 -41 11 -55 3 -14
8 -43 11 -65 6 -38 9 -57 18 -107 6 -34 17 -108 21 -148 2 -19 6 -57 10 -85 7
-55 17 -267 16 -330 -2 -90 -1 -117 5 -126 3 -5 2 -9 -3 -9 -4 0 -8 -21 -9
-48 -1 -77 -14 -209 -28 -297 -4 -22 -9 -56 -12 -75 -10 -67 -15 -96 -35 -195
-11 -55 -22 -109 -23 -120 -3 -17 -10 -48 -42 -177 -10 -42 -14 -58 -39 -143
-15 -49 -30 -99 -35 -110 -5 -11 -18 -47 -28 -80 -22 -67 -55 -153 -79 -205
-9 -19 -16 -41 -16 -47 0 -7 -4 -13 -9 -13 -4 0 -8 -7 -8 -15 0 -8 -4 -23 -10
-33 -5 -9 -41 -81 -79 -159 -74 -150 -92 -185 -102 -193 -3 -3 -9 -12 -13 -20
-4 -8 -12 -24 -19 -35 -71 -118 -92 -151 -97 -155 -3 -3 -25 -34 -49 -69 -155
-229 -414 -514 -620 -681 -24 -19 -48 -40 -55 -45 -70 -63 -267 -200 -410
-286 -45 -27 -74 -49 -66 -50 20 -1 16056 -1 16093 0 l27 1 -2 3388 -3 3387
-383 0 c-210 0 -382 3 -382 7 0 4 -7 5 -16 1 -22 -8 -624 -9 -624 -1 0 4 -7 5
-16 1 -22 -8 -1584 -9 -1584 -1 0 4 -7 5 -16 1 -22 -8 -464 -9 -464 -1 0 4 -7
5 -16 1 -22 -8 -1104 -9 -1104 -1 0 4 -7 5 -16 1 -22 -8 -624 -9 -624 -1 0 4
-7 5 -16 1 -22 -8 -1584 -9 -1584 -1 0 4 -7 5 -16 1 -22 -8 -464 -9 -464 -1 0
4 -7 5 -16 1 -22 -8 -1424 -9 -1424 -1 0 4 -7 5 -16 1 -22 -8 -464 -9 -464 -1
0 4 -7 5 -16 1 -22 -8 -784 -9 -784 -1 0 4 -7 5 -16 1 -22 -8 -464 -9 -464 -1
0 4 -7 5 -16 1 -22 -8 -784 -9 -784 -1 0 4 -7 5 -16 1 -22 -8 -464 -9 -464 -1
0 4 -7 5 -16 1 -22 -8 -784 -9 -784 -1 0 4 -7 5 -16 1 -22 -8 -464 -9 -464 -1
0 4 -7 5 -16 1 -22 -8 -1424 -9 -1424 -1 0 4 -7 5 -16 1 -24 -9 -464 -9 -467
0 -1 5 -6 5 -9 1z m14317 -3396 c1 -1484 -2 -2699 -5 -2699 -12 -3 -13705 -5
-13711 -2 -4 1 19 29 50 60 103 106 214 252 315 416 77 125 186 334 178 341
-3 3 0 6 6 6 7 0 12 6 12 13 0 7 9 30 20 52 11 22 20 42 20 46 0 3 10 28 22
55 12 27 23 54 24 59 1 6 14 41 29 80 37 98 78 229 118 380 43 161 48 182 54
220 2 17 10 62 18 100 19 104 28 148 30 165 5 30 18 136 20 160 1 14 5 48 9
75 27 215 27 674 0 925 -3 25 -6 59 -8 75 -5 46 -16 117 -21 145 -3 14 -7 43
-10 65 -7 49 -13 80 -15 80 -1 0 -3 9 -5 20 -2 11 -8 45 -15 75 -6 30 -14 69
-17 85 -8 44 -11 60 -13 60 -1 0 -3 7 -5 15 -10 39 -15 57 -24 88 -5 18 -10
33 -9 35 1 5 -24 89 -43 149 -11 35 -22 70 -24 78 -3 13 -13 42 -41 115 -4 11
-8 22 -8 25 -1 3 -19 50 -40 105 -69 177 -245 534 -268 543 -4 2 -8 8 -8 14 0
6 -13 30 -30 55 -16 24 -30 48 -30 54 0 5 -4 9 -8 9 -5 0 -15 12 -23 28 -18
35 -165 224 -218 280 -23 24 -41 46 -41 50 0 4 3086 5 6857 2 l6858 -5 0
-2697z"/>
<path d="M30278 21385 c-3 -3 -49 -10 -133 -21 -16 -2 -38 -7 -47 -10 -10 -3
-28 -7 -40 -9 -50 -9 -188 -54 -269 -88 -89 -37 -234 -111 -249 -128 -3 -3
-23 -16 -45 -29 -79 -48 -162 -117 -265 -220 -58 -58 -112 -115 -120 -125 -8
-11 -36 -49 -63 -85 -26 -36 -51 -69 -55 -75 -5 -5 -8 -12 -8 -15 0 -3 -12
-23 -25 -45 -25 -39 -77 -144 -117 -235 -28 -62 -71 -207 -64 -214 3 -3 1 -6
-5 -6 -5 0 -10 -6 -10 -12 -1 -21 -13 -90 -18 -97 -2 -4 -6 -32 -10 -62 -3
-30 -8 -76 -11 -103 -3 -28 -7 -53 -10 -58 -3 -4 0 -8 6 -8 7 0 8 -6 2 -17
-13 -28 -6 -221 13 -368 11 -84 59 -269 86 -330 5 -11 10 -27 11 -35 6 -28
122 -256 160 -312 21 -31 38 -59 38 -62 0 -4 8 -15 18 -25 9 -11 22 -26 27
-33 66 -90 190 -216 304 -311 42 -34 198 -137 208 -137 6 0 13 -3 15 -8 3 -7
109 -61 188 -96 46 -20 208 -74 240 -80 14 -2 25 -5 25 -6 0 -5 153 -31 218
-37 82 -8 317 -7 392 1 33 4 110 18 170 32 135 30 128 28 140 35 6 4 39 16 75
27 36 11 109 42 164 69 132 64 136 67 136 75 0 5 5 8 10 8 11 0 80 43 121 75
14 11 40 31 59 45 37 28 175 154 199 183 9 11 29 33 44 50 45 51 140 186 184
262 40 68 103 198 103 211 0 3 6 20 14 37 20 48 62 176 71 220 3 15 7 38 10
52 24 118 33 214 34 330 1 112 1 114 2 128 4 29 -15 206 -27 260 -3 16 -7 38
-9 50 -7 46 -53 215 -63 232 -4 6 -7 15 -8 20 -1 6 -10 28 -19 50 -10 22 -16
40 -15 40 7 0 -128 245 -140 255 -4 3 -13 16 -20 29 -47 89 -243 297 -365 387
-22 16 -41 32 -43 37 -2 4 -10 7 -17 7 -7 0 -15 4 -17 8 -3 10 -193 123 -211
126 -7 1 -37 14 -67 28 -30 14 -93 38 -140 53 -47 15 -92 29 -100 32 -8 4 -18
6 -21 5 -3 0 -23 3 -45 9 -21 5 -55 12 -74 15 -19 3 -46 8 -60 11 -27 6 -456
14 -462 8z m372 -651 c93 -19 101 -21 145 -37 22 -8 56 -20 75 -27 19 -7 40
-17 46 -21 6 -5 33 -21 60 -35 27 -14 51 -29 54 -33 3 -4 25 -21 50 -38 71
-48 220 -213 220 -242 0 -6 4 -11 8 -11 24 0 141 -280 157 -379 3 -19 7 -37 9
-40 8 -12 18 -130 21 -241 4 -154 -21 -320 -65 -425 -4 -11 -14 -36 -21 -55
-7 -19 -17 -42 -23 -50 -6 -8 -20 -33 -31 -55 -11 -22 -22 -42 -26 -45 -3 -3
-20 -26 -38 -53 -47 -69 -208 -227 -231 -227 -6 0 -10 -4 -10 -8 0 -12 -138
-90 -213 -120 -70 -28 -146 -51 -197 -58 -19 -3 -51 -9 -70 -13 -65 -14 -293
-3 -323 16 -4 2 -24 7 -45 9 -20 3 -41 9 -46 14 -6 6 -18 10 -27 10 -10 0 -46
13 -81 29 -215 100 -408 291 -508 504 -41 87 -80 194 -73 201 4 3 1 6 -6 6 -7
0 -10 4 -7 8 3 4 0 26 -5 48 -23 96 -32 361 -15 464 13 76 38 184 46 195 4 6
10 23 14 39 11 44 77 186 87 186 5 0 9 5 9 11 0 25 69 114 159 205 121 123
316 229 476 260 11 2 43 8 70 13 70 13 277 10 355 -5z"/>
<path d="M26816 21321 c-2 -6 0 -3334 3 -3357 1 -8 245 -11 909 -11 l908 0 0
286 -1 286 -566 3 -567 2 1 1389 c0 764 -3 1393 -6 1398 -7 11 -676 14 -681 4z"/>
<path d="M32749 21326 c-4 -2 -5 -3352 -2 -3363 3 -8 97 -11 351 -10 l347 2 0
700 0 700 35 5 c19 3 39 4 44 2 8 -4 108 -5 124 -1 4 1 11 1 15 0 7 -1 136 -2
192 -1 11 1 48 0 83 0 34 0 67 2 72 5 6 3 10 1 10 -5 0 -6 4 -9 8 -6 8 5 90 7
192 6 30 -1 60 -1 65 0 6 2 14 2 18 1 4 -1 47 -1 95 -1 48 0 119 0 159 -1 l72
0 1 288 0 288 -590 0 c-519 0 -590 2 -591 15 -1 21 -1 759 0 791 l1 26 578 1
c317 0 583 1 590 1 9 1 12 64 12 279 l0 279 -940 0 c-517 0 -941 -1 -941 -1z"/>
<path d="M35209 21321 c-1 -3 -2 -129 -3 -278 -1 -237 1 -273 14 -274 8 0 191
-1 405 -2 l390 -2 3 -1406 2 -1407 343 2 342 1 2 1395 c0 767 2 1400 2 1406 1
8 111 11 384 12 210 0 389 1 397 1 14 1 16 36 16 279 l0 279 -1148 0 c-631 0
-1149 -3 -1149 -6z"/>
</g>
</svg>
